<svg width="50" height="50" viewBox="0 0 50 50" fill="none" xmlns="http://www.w3.org/2000/svg">
<path d="M44.5312 4.6875C41.1407 4.6875 40.1579 7.76445 39.1612 9.55039C39.6581 4.40918 40.5315 3.31016 40.7332 3.12139C41.5457 3.06572 42.1875 2.38906 42.1875 1.5625C42.1875 0.699609 41.488 0 40.625 0H9.375C8.51201 0 7.8125 0.699609 7.8125 1.5625C7.8125 2.38906 8.4543 3.06572 9.2668 3.12129C9.46846 3.31016 10.3419 4.40918 10.8388 9.55029C9.83613 7.75381 8.85986 4.6875 5.46875 4.6875C2.946 4.6875 0 6.73359 0 12.5C0 16.3204 1.11523 19.0799 3.40937 20.9364C5.34687 22.5043 7.76943 23.1168 9.90693 23.6571C13.7327 24.6244 14.8438 25.1333 14.8438 27.4778C14.8438 28.0505 14.1455 28.3422 13.739 27.9355C13.1289 27.3253 12.1395 27.3253 11.5292 27.9354C10.919 28.5456 10.9189 29.535 11.5291 30.1451C13.3988 32.0149 16.5495 31.4254 17.6346 29.027C19.4263 30.5868 21.4013 31.568 23.4375 31.9021V37.5H17.1875C16.3245 37.5 15.625 38.1996 15.625 39.0625V46.875H14.0625C13.1995 46.875 12.5 47.5746 12.5 48.4375C12.5 49.3004 13.1995 50 14.0625 50H35.9375C36.8005 50 37.5 49.3004 37.5 48.4375C37.5 47.5746 36.8005 46.875 35.9375 46.875H34.375V39.0625C34.375 38.1996 33.6755 37.5 32.8125 37.5H26.5625V31.9021C28.5986 31.568 30.5736 30.5868 32.3654 29.027C33.4516 31.4277 36.6027 32.0134 38.4709 30.1451C39.0811 29.5349 39.081 28.5456 38.4708 27.9354C37.8605 27.3253 36.8712 27.3253 36.261 27.9355C35.8546 28.3421 35.1562 28.0506 35.1562 27.4778V27.3438C35.1562 25.1051 36.4359 24.5817 40.0931 23.6571C42.2306 23.1167 44.6531 22.5042 46.5906 20.9364C48.8848 19.0799 50 16.3204 50 12.5C50 6.73359 47.054 4.6875 44.5312 4.6875ZM31.25 46.875H18.75V40.625H31.25V46.875ZM3.125 12.5C3.125 10.3376 3.73877 7.8125 5.46875 7.8125C6.32002 7.8125 6.72461 8.34941 7.58682 10.0737C8.27979 11.4599 9.18477 13.2665 11.1119 13.8617C11.1789 15.6966 11.0821 17.7608 12.2919 21.054C7.65996 19.7318 3.125 19.584 3.125 12.5ZM25 28.9062C19.233 28.9062 14.4101 21.1206 14.2809 15.3159C14.2073 12.003 13.9425 6.24473 12.7767 3.125H37.2233C36.0574 6.24463 35.7927 12.003 35.7191 15.3158C35.5901 21.1104 30.7732 28.9062 25 28.9062ZM37.708 21.0541C38.8899 17.8367 38.814 15.889 38.888 13.8618C42.4104 12.7738 42.4025 7.8125 44.5312 7.8125C46.2612 7.8125 46.875 10.3376 46.875 12.5C46.875 19.5639 42.3763 19.7215 37.708 21.0541Z" fill="#4E5FE3"/>
</svg>
