<svg width="50" height="38" viewBox="0 0 50 38" fill="none" xmlns="http://www.w3.org/2000/svg">
<path d="M48.4375 4.73052H44.5312V1.73651C44.5312 0.909786 43.8317 0.239502 42.9688 0.239502H29.6875C27.8221 0.239502 26.1462 1.02749 25 2.27318C23.8538 1.02749 22.1778 0.239502 20.3125 0.239502H7.03125C6.16836 0.239502 5.46875 0.909786 5.46875 1.73651V4.73052H1.5625C0.699609 4.73052 0 5.4008 0 6.22753V36.1676C0 36.9944 0.699609 37.6646 1.5625 37.6646H48.4375C49.3005 37.6646 50 36.9944 50 36.1676V6.22753C50 5.4008 49.3005 4.73052 48.4375 4.73052ZM29.6875 3.23351H41.4062V30.1796H29.6875C28.55 30.1796 27.4823 30.4724 26.5625 30.9832V6.22753C26.5625 4.57661 27.9644 3.23351 29.6875 3.23351ZM8.59375 3.23351H20.3125C22.0356 3.23351 23.4375 4.57661 23.4375 6.22753V30.9832C22.5177 30.4724 21.45 30.1796 20.3125 30.1796H8.59375V3.23351ZM3.125 7.72453H5.46875V31.6766C5.46875 32.5033 6.16836 33.1736 7.03125 33.1736H20.3125C21.4666 33.1736 22.4759 33.7766 23.0171 34.6706H3.125V7.72453ZM46.875 34.6706H26.9829C27.5241 33.7766 28.5334 33.1736 29.6875 33.1736H42.9688C43.8317 33.1736 44.5312 32.5033 44.5312 31.6766V7.72453H46.875V34.6706Z" fill="#4E5FE3"/>
<path d="M12.5 9.22155H19.5312C20.3941 9.22155 21.0938 8.55127 21.0938 7.72455C21.0938 6.89782 20.3941 6.22754 19.5312 6.22754H12.5C11.6371 6.22754 10.9375 6.89782 10.9375 7.72455C10.9375 8.55127 11.6371 9.22155 12.5 9.22155Z" fill="#4E5FE3"/>
<path d="M12.5 15.2096H19.5312C20.3941 15.2096 21.0938 14.5393 21.0938 13.7126C21.0938 12.8859 20.3941 12.2156 19.5312 12.2156H12.5C11.6371 12.2156 10.9375 12.8859 10.9375 13.7126C10.9375 14.5393 11.6371 15.2096 12.5 15.2096Z" fill="#4E5FE3"/>
<path d="M12.5 21.1976H19.5312C20.3941 21.1976 21.0938 20.5273 21.0938 19.7006C21.0938 18.8739 20.3941 18.2036 19.5312 18.2036H12.5C11.6371 18.2036 10.9375 18.8739 10.9375 19.7006C10.9375 20.5273 11.6371 21.1976 12.5 21.1976Z" fill="#4E5FE3"/>
<path d="M12.5 27.1857H19.5312C20.3941 27.1857 21.0938 26.5154 21.0938 25.6887C21.0938 24.8619 20.3941 24.1917 19.5312 24.1917H12.5C11.6371 24.1917 10.9375 24.8619 10.9375 25.6887C10.9375 26.5154 11.6371 27.1857 12.5 27.1857Z" fill="#4E5FE3"/>
<path d="M30.4688 9.22155H37.5C38.363 9.22155 39.0625 8.55127 39.0625 7.72455C39.0625 6.89782 38.363 6.22754 37.5 6.22754H30.4688C29.6058 6.22754 28.9062 6.89782 28.9062 7.72455C28.9062 8.55127 29.6058 9.22155 30.4688 9.22155Z" fill="#4E5FE3"/>
<path d="M30.4688 15.2096H37.5C38.363 15.2096 39.0625 14.5393 39.0625 13.7126C39.0625 12.8859 38.363 12.2156 37.5 12.2156H30.4688C29.6058 12.2156 28.9062 12.8859 28.9062 13.7126C28.9062 14.5393 29.6058 15.2096 30.4688 15.2096Z" fill="#4E5FE3"/>
<path d="M30.4688 21.1976H37.5C38.363 21.1976 39.0625 20.5273 39.0625 19.7006C39.0625 18.8739 38.363 18.2036 37.5 18.2036H30.4688C29.6058 18.2036 28.9062 18.8739 28.9062 19.7006C28.9062 20.5273 29.6058 21.1976 30.4688 21.1976Z" fill="#4E5FE3"/>
<path d="M30.4688 27.1857H37.5C38.363 27.1857 39.0625 26.5154 39.0625 25.6887C39.0625 24.8619 38.363 24.1917 37.5 24.1917H30.4688C29.6058 24.1917 28.9062 24.8619 28.9062 25.6887C28.9062 26.5154 29.6058 27.1857 30.4688 27.1857Z" fill="#4E5FE3"/>
</svg>
