<svg width="50" height="50" viewBox="0 0 50 50" fill="none" xmlns="http://www.w3.org/2000/svg">
<g clip-path="url(#clip0_613_6040)">
<path d="M48.4375 9.375C49.3004 9.375 50 8.67539 50 7.8125V1.5625C50 0.699609 49.3004 0 48.4375 0H1.5625C0.699609 0 0 0.699609 0 1.5625V7.8125C0 8.67539 0.699609 9.375 1.5625 9.375H2.34375V37.5H1.5625C0.699609 37.5 0 38.1996 0 39.0625C0 39.9254 0.699609 40.625 1.5625 40.625H23.4375V45.9112C21.8435 47.34 22.85 50 25 50C27.149 50 28.1571 47.3405 26.5625 45.9112V40.625H48.4375C49.3004 40.625 50 39.9254 50 39.0625C50 38.1996 49.3004 37.5 48.4375 37.5H47.6562V9.375H48.4375ZM3.125 3.125H46.875V6.25C44.7642 6.25 5.37988 6.25 3.125 6.25V3.125ZM44.5312 37.5H5.46875V9.375H44.5312V37.5Z" fill="#4E5FE3"/>
<path d="M10.9858 21.2997L15.4017 23.2133V28.3481C15.4017 30.1334 16.523 31.7395 18.5589 32.8707C24.402 36.1169 34.5981 33.8813 34.5981 28.3481V23.2133L39.014 21.2997C40.2663 20.7569 40.2666 18.9751 39.014 18.4323L25.6211 12.6288C25.2247 12.4571 24.7749 12.4571 24.3785 12.6288L10.9857 18.4323C9.73342 18.975 9.73313 20.7568 10.9858 21.2997ZM31.4732 28.3481C31.4732 29.5312 28.9514 31.2499 24.9999 31.2499C21.0485 31.2499 18.5267 29.5312 18.5267 28.3481V24.5675L24.3786 27.1033C24.7748 27.275 25.2248 27.2751 25.6212 27.1033L31.4732 24.5675V28.3481ZM24.9999 15.7654L34.463 19.866C17.6381 27.1567 29.2512 22.1244 24.9999 23.9667C21.6313 22.5069 19.4302 21.5532 15.5368 19.866L24.9999 15.7654Z" fill="#4E5FE3"/>
</g>
<defs>
<clipPath id="clip0_613_6040">
<rect width="50" height="50" fill="white"/>
</clipPath>
</defs>
</svg>
