<svg width="1920" height="1844" viewBox="0 0 1920 1844" fill="none" xmlns="http://www.w3.org/2000/svg">
<g clip-path="url(#clip0_340_5934)">
<rect width="1920" height="1844" rx="30" fill="#FCFEFE"/>
<g filter="url(#filter0_f_340_5934)">
<circle cx="1640" cy="575" r="189" fill="url(#paint0_radial_340_5934)" fill-opacity="0.6"/>
</g>
<g filter="url(#filter1_f_340_5934)">
<circle cx="265" cy="618" r="189" fill="url(#paint1_radial_340_5934)" fill-opacity="0.6"/>
</g>
<g filter="url(#filter2_f_340_5934)">
<circle cx="977.5" cy="617.5" r="273.5" fill="#FFDED5"/>
</g>
<g filter="url(#filter3_f_340_5934)">
<circle cx="1655" cy="223" r="223" fill="#FFA41B" fill-opacity="0.36"/>
</g>
<g filter="url(#filter4_f_340_5934)">
<circle cx="425" cy="285" r="214" fill="#FFCCBE"/>
</g>
<g clip-path="url(#clip1_340_5934)">
<g style="mix-blend-mode:overlay">
<path d="M241.508 1323.64L241.669 1323.55L488.557 1190.75L488.341 1190.35L407.298 1034.25L407.083 1034.18L81.6719 928.617V929.327L87.4538 1304.67L87.9167 1304.73L241.497 1323.65L241.508 1323.64ZM487.168 1190.37L241.293 1322.61L88.5413 1303.79L82.8024 930.018L406.544 1035.04L487.178 1190.36L487.168 1190.37Z" fill="white" fill-opacity="0.5"/>
</g>
<g style="mix-blend-mode:overlay">
<path d="M375.201 1363.19L662.023 1294L656.252 1172.41L829.601 1149.11L828.19 1140.32L655.821 1163.5L647.488 987.811L865.584 968.317L624.414 832.96L623.79 832.792L355.175 761.862L673.544 625.36L406.113 546L337.592 758.437L328.914 758.506L195.522 631.016L-3.19406 769.906L324.812 767.419L331.95 774.24L221.847 1062.07L286.255 1163.75L390.2 1179.89L375.212 1363.19H375.201ZM652.01 1287.23L385.882 1351.43L399.782 1181.38L487.802 1195.05L488.556 1194.95L646.616 1173.7L651.999 1287.22L652.01 1287.23ZM646.206 1164.78L487.921 1186.06L400.514 1172.48L411.734 1035.18L442.409 866.984L343.051 772.029L344.483 768.278L620.484 841.153L835.867 962.039L637.421 979.777L646.196 1164.78H646.206ZM432.062 869.916L402.108 1034.11L402.086 1034.31L390.91 1170.99L292.338 1155.68L232.452 1061.15L339.455 781.425L432.051 869.916H432.062ZM315.584 758.595L25.8123 760.786L194.52 642.871L315.595 758.585L315.584 758.595ZM647.165 626.861L348.876 754.745L412.584 557.253L647.165 626.861Z" fill="white" fill-opacity="0.5"/>
</g>
<g style="mix-blend-mode:overlay">
<path d="M1013.23 1306.63L979.09 1090.9L978.864 1090.67L849.94 962.917L827.792 1145.09L828.18 1145.43L1013.23 1306.63ZM977.055 1091.79L1010.21 1301.27L830.043 1144.33L851.555 967.428L977.055 1091.79Z" fill="white" fill-opacity="0.5"/>
</g>
<g style="mix-blend-mode:overlay">
<path d="M1387.16 1456.17L1609.44 1411.03L1345.71 1316.42L1345.37 1315.52L1342.09 1315.36L1011.95 1299.52L1011.44 1308.39L1338.3 1324.08L1387.15 1456.17H1387.16ZM1576.27 1408.67L1393.54 1445.78L1349.78 1327.41L1576.27 1408.66V1408.67Z" fill="white" fill-opacity="0.5"/>
</g>
<g style="mix-blend-mode:overlay">
<path d="M9.8436 764.694L12.8193 765.846L-66.9195 938.984L-69.8952 937.832L9.8436 764.694Z" fill="white" fill-opacity="0.5"/>
</g>
<g style="mix-blend-mode:overlay">
<path d="M1232.54 1442.47L1232.57 1442.45L1236.79 1442.47L1234.07 1440.79L1344 1319.73L1343.01 1318.77L1110.95 1094.83L1009.69 1304.48L1226.21 1439.46L956.307 1438.37L727.433 1420.2L830.99 1143.71L829.353 1143.28L413.338 1034.79L644.247 984.929L623.844 835.309L622.164 835.596L436.444 867.083L436.089 867.409L226.208 1060.38L66.1027 1128.36L67.4591 1131.04L228.092 1062.85L228.297 1062.66L438.027 869.837L621.077 838.804L640.694 982.669L400.504 1034.53L826.834 1145.71L723.04 1422.83L725.096 1423L956.167 1441.35H956.232L1232.52 1442.46L1232.54 1442.48V1442.47ZM1339.7 1319.86L1231.4 1439.11L1013.75 1303.43L1111.97 1100.09L1339.71 1319.86H1339.7Z" fill="white" fill-opacity="0.5"/>
</g>
<g style="mix-blend-mode:overlay">
<path d="M642.524 984.396L642.815 984.169L942.029 750.994L941.34 750.244L642.416 983.182L437.434 867.981L437.326 867.971L216.937 831.558L216.743 832.536L437.036 868.929L642.524 984.396Z" fill="white" fill-opacity="0.5"/>
</g>
<g style="mix-blend-mode:overlay">
<path d="M1497.03 1514.67L1498.33 1514.55L1729 1493.57L1592.77 1409.18L1592.45 1409.53L1497.03 1514.67ZM1725.93 1492.86L1499.53 1513.45L1592.97 1410.5L1725.93 1492.86Z" fill="white" fill-opacity="0.5"/>
</g>
<g style="mix-blend-mode:overlay">
<path d="M1497.98 1514.48L1498.56 1513.64L1390.53 1450.49L1390.39 1450.48L1231.54 1440.48L956.608 1439.36L829.407 1144.53L828.406 1144.89L955.865 1440.35H956.231L1231.5 1441.46L1390.18 1451.46L1497.98 1514.48Z" fill="white" fill-opacity="0.5"/>
</g>
<g style="mix-blend-mode:overlay">
<path d="M-48.8776 614.698L195.167 635.531L194.867 638.479L-49.177 617.646L-48.8776 614.698Z" fill="white" fill-opacity="0.5"/>
</g>
<g style="mix-blend-mode:overlay">
<path d="M1112.42 1098.98L1112.89 1098.14L1217.41 911.007L964.306 947.361L943.095 748.694L758.979 798.541L659.546 621.451L620.441 839.139L757.332 802.075L849.821 966.796L961.42 950.767L976.58 1092.76L1112.41 1098.98H1112.42ZM1211.65 914.827L1110.49 1095.92L979.531 1089.92L964.629 950.303L1211.65 914.827ZM961.119 947.815L851.64 963.539L760.498 801.216L940.263 752.544L961.108 947.815H961.119ZM755.835 799.39L624.467 834.954L661.151 630.759L755.835 799.38V799.39Z" fill="white" fill-opacity="0.5"/>
</g>
<g style="mix-blend-mode:overlay">
<path d="M-100 1148.05L66.9526 1131.17L66.5974 1128.23L-96.2642 1144.7L-66.8273 938.685L-70.025 938.3L-100 1148.05Z" fill="white" fill-opacity="0.5"/>
</g>
<g style="mix-blend-mode:overlay">
<path d="M-66.6114 1518.91L136.034 1451.53L-0.534347 1426.83L89.79 1305.35L86.2368 1303.13L-2.90317 1423.02L-39.414 1222.21L-66.6006 1518.92L-66.6114 1518.91ZM120.013 1452.65L-61.7555 1513.1L-38.0035 1253.97L-6.41322 1427.73L-7.75909 1429.54L120.024 1452.65H120.013Z" fill="white" fill-opacity="0.5"/>
</g>
<g style="mix-blend-mode:overlay">
<path d="M1046.71 1517.33L1047.51 1517.19L1390.68 1452.43L1390.03 1449.53L1047.66 1514.14L958.137 1439.44L1013.88 1302.9L1012.09 1302.52L490.527 1189.63L645.335 982.59L642.643 982.333L86.3553 928.242L220.146 831.558L132.621 803.161L196.297 638.064L421.435 548.428L-51.2254 614.917L10.0496 766.511L10.7602 766.738L128.497 804.947L81.0686 927.906L-71.2843 937.185L64.746 1129.56L-38.4666 1235.6L-96.7589 1145.63L-99.5369 1147.14L-40.7276 1237.92L-41.2659 1238.48L-39.8985 1239.19L-39.5001 1239.81L-38.9618 1239.68L88.1318 1306.02L88.9825 1305.41L296.398 1156.49L-33.9767 1235.43L68.7836 1129.85L68.116 1128.9L-65.5993 939.81L82.1884 930.818L639.585 985.018L485.176 1191.52L1009.54 1305.02L954.315 1440.29L1046.67 1517.34L1046.71 1517.33ZM282.175 1162.95L87.8519 1302.46L-34.4719 1238.61L282.175 1162.95ZM213.535 832.546L85.623 924.984L131.544 805.934L213.546 832.546H213.535ZM397.252 554.824L193.724 635.843L129.574 802.154L12.5475 764.181L-46.8324 617.296L397.241 554.834L397.252 554.824Z" fill="white" fill-opacity="0.5"/>
</g>
<g style="mix-blend-mode:overlay">
<path d="M295.558 1571L1047.31 1517.2L1047.06 1514.25L304.871 1567.37L508.109 1401.38L727.939 1423.28L660.624 1294.1L952.097 1439.48L696.209 1539.31L697.167 1542.14L960.355 1440.24L956.996 1438.57L653.41 1287.14L722.523 1419.76L511.35 1398.73L512.685 1397.64L507.732 1398.32L380.962 1355.89L240.797 1321.46L240.14 1322.21L124.158 1454.12L502.446 1402.04L295.558 1571ZM501.068 1399.24L131.878 1450.06L242.003 1324.82L380.068 1358.73L501.068 1399.24Z" fill="white" fill-opacity="0.5"/>
</g>
<g style="mix-blend-mode:overlay">
<path d="M1215.1 912.806L1342.29 1319.71L1341.25 1319.98L1214.06 913.078L1215.1 912.806Z" fill="white" fill-opacity="0.5"/>
</g>
<g style="mix-blend-mode:overlay">
<path d="M128.355 1451.67L300.517 1568.8L299.875 1569.59L127.713 1452.46L128.355 1451.67Z" fill="white" fill-opacity="0.5"/>
</g>
</g>
<g clip-path="url(#clip2_340_5934)">
<path fill-rule="evenodd" clip-rule="evenodd" d="M1737 104C1737 103.773 1737.08 103.555 1737.22 103.394C1737.36 103.233 1737.55 103.143 1737.75 103.143H1746.44L1743.22 99.4648C1743.08 99.3039 1743 99.0856 1743 98.8581C1743 98.6305 1743.08 98.4122 1743.22 98.2513C1743.36 98.0904 1743.55 98 1743.75 98C1743.95 98 1744.14 98.0904 1744.28 98.2513L1748.78 103.393C1748.85 103.473 1748.9 103.567 1748.94 103.672C1748.98 103.776 1749 103.887 1749 104C1749 104.113 1748.98 104.224 1748.94 104.328C1748.9 104.433 1748.85 104.527 1748.78 104.607L1744.28 109.749C1744.14 109.91 1743.95 110 1743.75 110C1743.55 110 1743.36 109.91 1743.22 109.749C1743.08 109.588 1743 109.37 1743 109.142C1743 108.914 1743.08 108.696 1743.22 108.535L1746.44 104.857H1737.75C1737.55 104.857 1737.36 104.767 1737.22 104.606C1737.08 104.445 1737 104.227 1737 104Z" fill="white"/>
</g>
<path d="M693.152 1806.21C692.394 1806.21 691.682 1806.06 691.016 1805.76C690.349 1805.46 689.762 1805.04 689.256 1804.51C688.754 1803.98 688.36 1803.36 688.072 1802.66C687.789 1801.95 687.648 1801.2 687.648 1800.4C687.648 1799.6 687.789 1798.85 688.072 1798.14C688.36 1797.44 688.754 1796.82 689.256 1796.3C689.762 1795.76 690.349 1795.35 691.016 1795.05C691.682 1794.74 692.394 1794.59 693.152 1794.59C694.058 1794.59 694.893 1794.8 695.656 1795.22C696.418 1795.65 697.05 1796.21 697.552 1796.9L696.36 1797.54C695.986 1797.05 695.514 1796.66 694.944 1796.38C694.378 1796.08 693.781 1795.94 693.152 1795.94C692.57 1795.94 692.026 1796.05 691.52 1796.29C691.018 1796.52 690.578 1796.85 690.2 1797.26C689.821 1797.67 689.525 1798.14 689.312 1798.68C689.098 1799.22 688.992 1799.79 688.992 1800.4C688.992 1801.01 689.098 1801.59 689.312 1802.13C689.53 1802.67 689.829 1803.14 690.208 1803.55C690.592 1803.96 691.034 1804.29 691.536 1804.52C692.042 1804.75 692.581 1804.86 693.152 1804.86C693.802 1804.86 694.405 1804.72 694.96 1804.42C695.52 1804.13 695.986 1803.74 696.36 1803.26L697.552 1803.9C697.05 1804.6 696.418 1805.16 695.656 1805.58C694.893 1806 694.058 1806.21 693.152 1806.21ZM702.238 1806.21C701.502 1806.21 700.83 1806.02 700.222 1805.64C699.619 1805.26 699.136 1804.75 698.774 1804.12C698.416 1803.48 698.238 1802.77 698.238 1802C698.238 1801.41 698.342 1800.87 698.55 1800.36C698.758 1799.85 699.043 1799.4 699.406 1799.02C699.774 1798.63 700.2 1798.32 700.686 1798.1C701.171 1797.89 701.688 1797.78 702.238 1797.78C702.974 1797.78 703.643 1797.97 704.246 1798.34C704.854 1798.72 705.336 1799.23 705.694 1799.87C706.056 1800.51 706.238 1801.22 706.238 1802C706.238 1802.58 706.134 1803.13 705.926 1803.63C705.718 1804.14 705.43 1804.59 705.062 1804.98C704.699 1805.36 704.275 1805.66 703.79 1805.88C703.31 1806.1 702.792 1806.21 702.238 1806.21ZM702.238 1804.86C702.739 1804.86 703.19 1804.73 703.59 1804.47C703.995 1804.21 704.312 1803.86 704.542 1803.42C704.776 1802.99 704.894 1802.51 704.894 1802C704.894 1801.48 704.774 1801 704.534 1800.56C704.299 1800.12 703.982 1799.77 703.582 1799.51C703.182 1799.25 702.734 1799.12 702.238 1799.12C701.736 1799.12 701.286 1799.25 700.886 1799.52C700.486 1799.78 700.168 1800.13 699.934 1800.57C699.699 1801.01 699.582 1801.48 699.582 1802C699.582 1802.53 699.702 1803.02 699.942 1803.46C700.182 1803.89 700.504 1804.23 700.91 1804.49C701.315 1804.74 701.758 1804.86 702.238 1804.86ZM708.906 1810H707.562V1798H708.906V1799.37C709.178 1798.9 709.54 1798.52 709.994 1798.23C710.447 1797.94 710.986 1797.79 711.61 1797.79C712.191 1797.79 712.735 1797.9 713.242 1798.12C713.754 1798.34 714.202 1798.64 714.586 1799.03C714.97 1799.42 715.271 1799.86 715.49 1800.37C715.708 1800.87 715.818 1801.42 715.818 1802C715.818 1802.58 715.708 1803.13 715.49 1803.64C715.271 1804.15 714.97 1804.6 714.586 1804.99C714.202 1805.38 713.754 1805.68 713.242 1805.9C712.735 1806.11 712.191 1806.22 711.61 1806.22C710.986 1806.22 710.447 1806.08 709.994 1805.79C709.54 1805.5 709.178 1805.12 708.906 1804.65V1810ZM711.594 1799.1C711.076 1799.1 710.623 1799.23 710.234 1799.49C709.844 1799.75 709.543 1800.1 709.33 1800.54C709.122 1800.97 709.018 1801.46 709.018 1802C709.018 1802.53 709.122 1803.02 709.33 1803.46C709.543 1803.91 709.842 1804.26 710.226 1804.52C710.615 1804.78 711.071 1804.91 711.594 1804.91C712.111 1804.91 712.586 1804.78 713.018 1804.53C713.45 1804.27 713.796 1803.92 714.058 1803.48C714.319 1803.04 714.45 1802.54 714.45 1802C714.45 1801.47 714.322 1800.98 714.066 1800.54C713.81 1800.1 713.466 1799.75 713.034 1799.49C712.602 1799.23 712.122 1799.1 711.594 1799.1ZM722.198 1798H723.622L719.246 1810H717.822L719.27 1806L716.398 1798H717.87L719.942 1804.15L722.198 1798ZM725.03 1806V1798H726.374V1799C726.657 1798.63 727.014 1798.33 727.446 1798.11C727.878 1797.89 728.348 1797.78 728.854 1797.78C729.164 1797.78 729.462 1797.82 729.75 1797.9L729.206 1799.24C728.988 1799.17 728.774 1799.14 728.566 1799.14C728.166 1799.14 727.798 1799.23 727.462 1799.43C727.132 1799.62 726.868 1799.89 726.67 1800.22C726.473 1800.55 726.374 1800.91 726.374 1801.32V1806H725.03ZM730.733 1798H732.077V1806H730.733V1798ZM731.421 1796.7C731.208 1796.7 731.029 1796.63 730.885 1796.49C730.741 1796.35 730.669 1796.18 730.669 1795.97C730.669 1795.76 730.741 1795.59 730.885 1795.45C731.029 1795.31 731.205 1795.24 731.413 1795.24C731.621 1795.24 731.797 1795.31 731.941 1795.45C732.085 1795.59 732.157 1795.76 732.157 1795.97C732.157 1796.18 732.085 1796.35 731.941 1796.49C731.803 1796.63 731.629 1796.7 731.421 1796.7ZM740.138 1798H741.482V1806.26C741.482 1806.78 741.367 1807.27 741.138 1807.73C740.914 1808.19 740.61 1808.58 740.226 1808.92C739.842 1809.26 739.404 1809.53 738.914 1809.71C738.423 1809.9 737.911 1810 737.378 1810C736.823 1810 736.287 1809.87 735.77 1809.62C735.252 1809.38 734.799 1809.05 734.41 1808.63C734.026 1808.22 733.748 1807.76 733.578 1807.25L734.81 1806.69C734.911 1807.06 735.092 1807.39 735.354 1807.68C735.62 1807.98 735.93 1808.21 736.282 1808.38C736.639 1808.56 737.004 1808.65 737.378 1808.65C737.73 1808.65 738.068 1808.59 738.394 1808.46C738.724 1808.34 739.02 1808.17 739.282 1807.95C739.548 1807.74 739.756 1807.49 739.906 1807.19C740.06 1806.9 740.138 1806.59 740.138 1806.26V1804.66C739.866 1805.12 739.506 1805.5 739.058 1805.78C738.615 1806.07 738.098 1806.21 737.506 1806.21C736.94 1806.21 736.41 1806.1 735.914 1805.88C735.418 1805.66 734.983 1805.36 734.61 1804.98C734.236 1804.59 733.943 1804.14 733.73 1803.63C733.516 1803.13 733.41 1802.58 733.41 1802C733.41 1801.42 733.516 1800.87 733.73 1800.37C733.943 1799.86 734.236 1799.41 734.61 1799.02C734.983 1798.63 735.418 1798.33 735.914 1798.11C736.41 1797.89 736.94 1797.78 737.506 1797.78C738.098 1797.78 738.615 1797.93 739.058 1798.21C739.506 1798.49 739.866 1798.86 740.138 1799.33V1798ZM737.514 1804.9C738.031 1804.9 738.479 1804.77 738.858 1804.5C739.242 1804.24 739.538 1803.88 739.746 1803.44C739.954 1803 740.058 1802.52 740.058 1802C740.058 1801.47 739.951 1800.98 739.738 1800.54C739.53 1800.1 739.234 1799.75 738.85 1799.49C738.471 1799.22 738.026 1799.09 737.514 1799.09C737.012 1799.09 736.554 1799.22 736.138 1799.48C735.722 1799.74 735.391 1800.09 735.146 1800.54C734.906 1800.97 734.786 1801.46 734.786 1802C734.786 1802.54 734.908 1803.03 735.154 1803.47C735.404 1803.91 735.735 1804.26 736.146 1804.52C736.562 1804.78 737.018 1804.9 737.514 1804.9ZM750.477 1801.02V1806H749.133V1801.32C749.133 1800.91 749.035 1800.55 748.837 1800.22C748.64 1799.89 748.376 1799.62 748.045 1799.43C747.715 1799.23 747.347 1799.14 746.941 1799.14C746.541 1799.14 746.173 1799.23 745.837 1799.43C745.507 1799.62 745.243 1799.89 745.045 1800.22C744.848 1800.55 744.749 1800.91 744.749 1801.32V1806H743.405V1794H744.749V1799C745.032 1798.63 745.389 1798.33 745.821 1798.11C746.253 1797.89 746.723 1797.78 747.229 1797.78C747.827 1797.78 748.371 1797.92 748.861 1798.22C749.357 1798.5 749.749 1798.89 750.037 1799.38C750.331 1799.87 750.477 1800.42 750.477 1801.02ZM756.221 1799.34H754.405L754.397 1806H753.053L753.061 1799.34H751.685V1798H753.061L753.053 1795.49H754.397L754.405 1798H756.221V1799.34ZM764.015 1807.95C763.093 1807.95 762.226 1807.78 761.415 1807.43C760.61 1807.09 759.901 1806.61 759.287 1806C758.674 1805.39 758.194 1804.68 757.847 1803.87C757.506 1803.06 757.335 1802.19 757.335 1801.27C757.335 1800.35 757.506 1799.49 757.847 1798.68C758.194 1797.87 758.674 1797.16 759.287 1796.54C759.901 1795.93 760.61 1795.45 761.415 1795.11C762.226 1794.77 763.093 1794.59 764.015 1794.59C764.938 1794.59 765.802 1794.77 766.607 1795.11C767.418 1795.45 768.13 1795.93 768.743 1796.54C769.357 1797.16 769.837 1797.87 770.183 1798.68C770.53 1799.49 770.703 1800.35 770.703 1801.27C770.703 1802.19 770.53 1803.06 770.183 1803.87C769.837 1804.68 769.357 1805.39 768.743 1806C768.13 1806.61 767.418 1807.09 766.607 1807.43C765.802 1807.78 764.938 1807.95 764.015 1807.95ZM764.015 1806.61C764.767 1806.61 765.466 1806.47 766.111 1806.18C766.762 1805.91 767.33 1805.52 767.815 1805.03C768.301 1804.54 768.679 1803.97 768.951 1803.33C769.223 1802.68 769.359 1802 769.359 1801.27C769.359 1800.54 769.218 1799.85 768.935 1799.2C768.658 1798.55 768.274 1797.98 767.783 1797.49C767.293 1797 766.725 1796.62 766.079 1796.34C765.434 1796.07 764.746 1795.93 764.015 1795.94C763.269 1795.94 762.573 1796.09 761.927 1796.37C761.282 1796.65 760.717 1797.03 760.231 1797.52C759.746 1798.01 759.365 1798.58 759.087 1799.22C758.815 1799.86 758.679 1800.54 758.679 1801.27C758.679 1802.02 758.821 1802.73 759.103 1803.38C759.386 1804.02 759.773 1804.59 760.263 1805.07C760.759 1805.56 761.327 1805.93 761.967 1806.2C762.613 1806.47 763.295 1806.61 764.015 1806.61ZM766.055 1803.15L767.263 1803.81C766.895 1804.31 766.434 1804.72 765.879 1805.02C765.325 1805.33 764.719 1805.48 764.063 1805.48C763.327 1805.48 762.655 1805.29 762.047 1804.91C761.445 1804.53 760.962 1804.03 760.599 1803.39C760.242 1802.75 760.063 1802.05 760.063 1801.27C760.063 1800.69 760.167 1800.14 760.375 1799.63C760.583 1799.12 760.869 1798.67 761.231 1798.29C761.599 1797.9 762.026 1797.59 762.511 1797.38C762.997 1797.16 763.514 1797.05 764.063 1797.05C764.719 1797.05 765.325 1797.2 765.879 1797.5C766.434 1797.81 766.895 1798.22 767.263 1798.73L766.055 1799.38C765.805 1799.06 765.501 1798.81 765.143 1798.65C764.791 1798.48 764.431 1798.39 764.063 1798.39C763.567 1798.39 763.117 1798.53 762.711 1798.79C762.311 1799.05 761.994 1799.4 761.759 1799.84C761.525 1800.28 761.407 1800.75 761.407 1801.27C761.407 1801.79 761.527 1802.27 761.767 1802.7C762.007 1803.14 762.327 1803.48 762.727 1803.74C763.133 1804.01 763.578 1804.14 764.063 1804.14C764.458 1804.14 764.829 1804.05 765.175 1803.86C765.527 1803.68 765.821 1803.45 766.055 1803.15ZM775.82 1806V1804.81C776.23 1804.44 776.692 1804.03 777.204 1803.58C777.716 1803.12 778.225 1802.64 778.732 1802.14C779.244 1801.64 779.713 1801.15 780.14 1800.66C780.566 1800.17 780.91 1799.7 781.172 1799.26C781.433 1798.82 781.564 1798.43 781.564 1798.1C781.564 1797.71 781.468 1797.35 781.276 1797.02C781.084 1796.69 780.825 1796.43 780.5 1796.23C780.18 1796.03 779.822 1795.94 779.428 1795.94C779.033 1795.94 778.67 1796.03 778.34 1796.23C778.014 1796.43 777.753 1796.69 777.556 1797.02C777.364 1797.35 777.268 1797.71 777.268 1798.1H775.924C775.924 1797.45 776.084 1796.86 776.404 1796.33C776.724 1795.79 777.148 1795.37 777.676 1795.06C778.204 1794.75 778.788 1794.59 779.428 1794.59C780.068 1794.59 780.649 1794.75 781.172 1795.06C781.7 1795.38 782.121 1795.8 782.436 1796.34C782.75 1796.86 782.908 1797.45 782.908 1798.1C782.908 1798.48 782.817 1798.88 782.636 1799.31C782.454 1799.74 782.206 1800.18 781.892 1800.63C781.577 1801.09 781.22 1801.54 780.82 1802.01C780.42 1802.47 779.998 1802.92 779.556 1803.37C779.113 1803.82 778.673 1804.25 778.236 1804.66H783.052V1806H775.82ZM788.394 1806.21C787.727 1806.21 787.13 1806.06 786.602 1805.76C786.074 1805.46 785.62 1805.04 785.242 1804.5C784.863 1803.97 784.575 1803.35 784.378 1802.66C784.18 1801.95 784.082 1801.2 784.082 1800.4C784.082 1799.6 784.18 1798.85 784.378 1798.14C784.575 1797.44 784.863 1796.82 785.242 1796.3C785.62 1795.76 786.074 1795.35 786.602 1795.05C787.13 1794.74 787.727 1794.59 788.394 1794.59C789.055 1794.59 789.65 1794.74 790.178 1795.05C790.711 1795.35 791.162 1795.76 791.53 1796.3C791.903 1796.82 792.188 1797.44 792.386 1798.14C792.588 1798.85 792.69 1799.6 792.69 1800.4C792.69 1801.2 792.588 1801.95 792.386 1802.66C792.188 1803.35 791.903 1803.97 791.53 1804.5C791.162 1805.04 790.711 1805.46 790.178 1805.76C789.65 1806.06 789.055 1806.21 788.394 1806.21ZM788.394 1804.86C789.06 1804.86 789.618 1804.66 790.066 1804.25C790.519 1803.83 790.858 1803.29 791.082 1802.61C791.306 1801.93 791.418 1801.19 791.418 1800.4C791.418 1799.56 791.3 1798.81 791.066 1798.14C790.836 1797.46 790.495 1796.92 790.042 1796.53C789.594 1796.13 789.044 1795.94 788.394 1795.94C787.882 1795.94 787.434 1796.06 787.05 1796.3C786.671 1796.54 786.356 1796.86 786.106 1797.28C785.855 1797.7 785.666 1798.17 785.538 1798.71C785.415 1799.25 785.354 1799.81 785.354 1800.4C785.354 1801.19 785.468 1801.93 785.698 1802.62C785.927 1803.29 786.266 1803.84 786.714 1804.25C787.167 1804.66 787.727 1804.86 788.394 1804.86ZM793.804 1806V1804.81C794.215 1804.44 794.676 1804.03 795.188 1803.58C795.7 1803.12 796.209 1802.64 796.716 1802.14C797.228 1801.64 797.697 1801.15 798.124 1800.66C798.551 1800.17 798.895 1799.7 799.156 1799.26C799.417 1798.82 799.548 1798.43 799.548 1798.1C799.548 1797.71 799.452 1797.35 799.26 1797.02C799.068 1796.69 798.809 1796.43 798.484 1796.23C798.164 1796.03 797.807 1795.94 797.412 1795.94C797.017 1795.94 796.655 1796.03 796.324 1796.23C795.999 1796.43 795.737 1796.69 795.54 1797.02C795.348 1797.35 795.252 1797.71 795.252 1798.1H793.908C793.908 1797.45 794.068 1796.86 794.388 1796.33C794.708 1795.79 795.132 1795.37 795.66 1795.06C796.188 1794.75 796.772 1794.59 797.412 1794.59C798.052 1794.59 798.633 1794.75 799.156 1795.06C799.684 1795.38 800.105 1795.8 800.42 1796.34C800.735 1796.86 800.892 1797.45 800.892 1798.1C800.892 1798.48 800.801 1798.88 800.62 1799.31C800.439 1799.74 800.191 1800.18 799.876 1800.63C799.561 1801.09 799.204 1801.54 798.804 1802.01C798.404 1802.47 797.983 1802.92 797.54 1803.37C797.097 1803.82 796.657 1804.25 796.22 1804.66H801.036V1806H793.804ZM806.378 1806.21C805.711 1806.21 805.114 1806.06 804.586 1805.76C804.058 1805.46 803.605 1805.04 803.226 1804.5C802.847 1803.97 802.559 1803.35 802.362 1802.66C802.165 1801.95 802.066 1801.2 802.066 1800.4C802.066 1799.6 802.165 1798.85 802.362 1798.14C802.559 1797.44 802.847 1796.82 803.226 1796.3C803.605 1795.76 804.058 1795.35 804.586 1795.05C805.114 1794.74 805.711 1794.59 806.378 1794.59C807.039 1794.59 807.634 1794.74 808.162 1795.05C808.695 1795.35 809.146 1795.76 809.514 1796.3C809.887 1796.82 810.173 1797.44 810.37 1798.14C810.573 1798.85 810.674 1799.6 810.674 1800.4C810.674 1801.2 810.573 1801.95 810.37 1802.66C810.173 1803.35 809.887 1803.97 809.514 1804.5C809.146 1805.04 808.695 1805.46 808.162 1805.76C807.634 1806.06 807.039 1806.21 806.378 1806.21ZM806.378 1804.86C807.045 1804.86 807.602 1804.66 808.05 1804.25C808.503 1803.83 808.842 1803.29 809.066 1802.61C809.29 1801.93 809.402 1801.19 809.402 1800.4C809.402 1799.56 809.285 1798.81 809.05 1798.14C808.821 1797.46 808.479 1796.92 808.026 1796.53C807.578 1796.13 807.029 1795.94 806.378 1795.94C805.866 1795.94 805.418 1796.06 805.034 1796.3C804.655 1796.54 804.341 1796.86 804.09 1797.28C803.839 1797.7 803.65 1798.17 803.522 1798.71C803.399 1799.25 803.338 1799.81 803.338 1800.4C803.338 1801.19 803.453 1801.93 803.682 1802.62C803.911 1803.29 804.25 1803.84 804.698 1804.25C805.151 1804.66 805.711 1804.86 806.378 1804.86ZM824.424 1794.8V1796.46H820.856V1806H819.192V1796.46H815.632V1794.8H824.424ZM833.23 1800.98V1806H831.566V1801.39C831.566 1801.03 831.478 1800.71 831.302 1800.42C831.132 1800.12 830.9 1799.89 830.606 1799.72C830.318 1799.54 829.993 1799.46 829.63 1799.46C829.278 1799.46 828.956 1799.54 828.662 1799.72C828.369 1799.89 828.134 1800.12 827.958 1800.42C827.782 1800.71 827.694 1801.03 827.694 1801.39V1806H826.03V1794H827.694V1798.85C827.972 1798.52 828.313 1798.26 828.718 1798.06C829.124 1797.87 829.561 1797.78 830.03 1797.78C830.622 1797.78 831.161 1797.92 831.646 1798.21C832.132 1798.5 832.516 1798.88 832.798 1799.37C833.086 1799.85 833.23 1800.39 833.23 1800.98ZM838.191 1806.21C837.455 1806.21 836.783 1806.02 836.175 1805.64C835.572 1805.26 835.09 1804.75 834.727 1804.12C834.37 1803.48 834.191 1802.77 834.191 1802C834.191 1801.41 834.295 1800.87 834.503 1800.36C834.711 1799.85 834.996 1799.4 835.359 1799.02C835.727 1798.63 836.154 1798.32 836.639 1798.1C837.124 1797.89 837.642 1797.78 838.191 1797.78C838.804 1797.78 839.367 1797.9 839.879 1798.16C840.391 1798.41 840.828 1798.76 841.191 1799.21C841.554 1799.65 841.82 1800.16 841.991 1800.74C842.162 1801.32 842.212 1801.93 842.143 1802.58H835.975C836.044 1802.95 836.178 1803.29 836.375 1803.58C836.578 1803.88 836.834 1804.11 837.143 1804.28C837.458 1804.45 837.807 1804.54 838.191 1804.54C838.596 1804.54 838.964 1804.44 839.295 1804.24C839.631 1804.04 839.906 1803.76 840.119 1803.4L841.807 1803.79C841.487 1804.5 841.004 1805.08 840.359 1805.54C839.714 1805.98 838.991 1806.21 838.191 1806.21ZM835.919 1801.31H840.463C840.41 1800.93 840.274 1800.58 840.055 1800.27C839.842 1799.96 839.572 1799.71 839.247 1799.53C838.927 1799.34 838.575 1799.25 838.191 1799.25C837.812 1799.25 837.46 1799.34 837.135 1799.52C836.815 1799.7 836.548 1799.95 836.335 1800.26C836.127 1800.57 835.988 1800.92 835.919 1801.31ZM843.468 1806V1798H845.132V1798.85C845.409 1798.52 845.748 1798.26 846.148 1798.06C846.553 1797.87 846.99 1797.78 847.46 1797.78C848.03 1797.78 848.556 1797.91 849.036 1798.19C849.516 1798.46 849.897 1798.83 850.18 1799.28C850.462 1798.83 850.838 1798.46 851.308 1798.19C851.782 1797.91 852.305 1797.78 852.876 1797.78C853.468 1797.78 854.006 1797.92 854.492 1798.21C854.977 1798.5 855.364 1798.88 855.652 1799.37C855.94 1799.85 856.084 1800.39 856.084 1800.98V1806H854.42V1801.41C854.42 1801.06 854.334 1800.73 854.164 1800.44C853.993 1800.15 853.764 1799.91 853.476 1799.73C853.188 1799.55 852.868 1799.46 852.516 1799.46C852.164 1799.46 851.844 1799.54 851.556 1799.71C851.268 1799.88 851.038 1800.11 850.868 1800.41C850.697 1800.7 850.612 1801.03 850.612 1801.41V1806H848.948V1801.41C848.948 1801.03 848.862 1800.7 848.692 1800.41C848.521 1800.11 848.289 1799.88 847.996 1799.71C847.708 1799.54 847.388 1799.46 847.036 1799.46C846.689 1799.46 846.369 1799.55 846.076 1799.73C845.788 1799.91 845.558 1800.15 845.388 1800.44C845.217 1800.73 845.132 1801.06 845.132 1801.41V1806H843.468ZM861.05 1806.21C860.314 1806.21 859.642 1806.02 859.034 1805.64C858.432 1805.26 857.949 1804.75 857.586 1804.12C857.229 1803.48 857.05 1802.77 857.05 1802C857.05 1801.41 857.154 1800.87 857.362 1800.36C857.57 1799.85 857.856 1799.4 858.218 1799.02C858.586 1798.63 859.013 1798.32 859.498 1798.1C859.984 1797.89 860.501 1797.78 861.05 1797.78C861.664 1797.78 862.226 1797.9 862.738 1798.16C863.25 1798.41 863.688 1798.76 864.05 1799.21C864.413 1799.65 864.68 1800.16 864.85 1800.74C865.021 1801.32 865.072 1801.93 865.002 1802.58H858.834C858.904 1802.95 859.037 1803.29 859.234 1803.58C859.437 1803.88 859.693 1804.11 860.002 1804.28C860.317 1804.45 860.666 1804.54 861.05 1804.54C861.456 1804.54 861.824 1804.44 862.154 1804.24C862.49 1804.04 862.765 1803.76 862.978 1803.4L864.666 1803.79C864.346 1804.5 863.864 1805.08 863.218 1805.54C862.573 1805.98 861.85 1806.21 861.05 1806.21ZM858.778 1801.31H863.322C863.269 1800.93 863.133 1800.58 862.914 1800.27C862.701 1799.96 862.432 1799.71 862.106 1799.53C861.786 1799.34 861.434 1799.25 861.05 1799.25C860.672 1799.25 860.32 1799.34 859.994 1799.52C859.674 1799.7 859.408 1799.95 859.194 1800.26C858.986 1800.57 858.848 1800.92 858.778 1801.31ZM873.527 1800.98V1806H871.863V1801.39C871.863 1801.03 871.775 1800.71 871.599 1800.42C871.429 1800.12 871.197 1799.89 870.903 1799.72C870.615 1799.54 870.29 1799.46 869.927 1799.46C869.575 1799.46 869.253 1799.54 868.959 1799.72C868.666 1799.89 868.431 1800.12 868.255 1800.42C868.079 1800.71 867.991 1801.03 867.991 1801.39V1806H866.327V1798H867.991V1798.85C868.269 1798.52 868.61 1798.26 869.015 1798.06C869.421 1797.87 869.858 1797.78 870.327 1797.78C870.919 1797.78 871.458 1797.92 871.943 1798.21C872.429 1798.5 872.813 1798.88 873.095 1799.37C873.383 1799.85 873.527 1800.39 873.527 1800.98ZM881.192 1798H882.856V1806H881.184L881.12 1804.84C880.885 1805.25 880.568 1805.58 880.168 1805.83C879.768 1806.08 879.296 1806.21 878.752 1806.21C878.165 1806.21 877.613 1806.1 877.096 1805.88C876.578 1805.66 876.122 1805.35 875.728 1804.95C875.338 1804.56 875.034 1804.1 874.816 1803.59C874.597 1803.07 874.488 1802.52 874.488 1801.93C874.488 1801.36 874.594 1800.82 874.808 1800.32C875.021 1799.81 875.317 1799.37 875.696 1798.99C876.074 1798.61 876.512 1798.32 877.008 1798.1C877.509 1797.89 878.045 1797.78 878.616 1797.78C879.197 1797.78 879.709 1797.91 880.152 1798.18C880.6 1798.44 880.97 1798.77 881.264 1799.18L881.192 1798ZM878.712 1804.6C879.181 1804.6 879.592 1804.49 879.944 1804.26C880.296 1804.02 880.568 1803.71 880.76 1803.31C880.957 1802.92 881.056 1802.48 881.056 1802C881.056 1801.51 880.957 1801.07 880.76 1800.68C880.562 1800.29 880.288 1799.97 879.936 1799.74C879.589 1799.51 879.181 1799.39 878.712 1799.39C878.248 1799.39 877.824 1799.51 877.44 1799.74C877.056 1799.98 876.752 1800.29 876.528 1800.69C876.304 1801.08 876.192 1801.52 876.192 1802C876.192 1802.49 876.306 1802.93 876.536 1803.32C876.77 1803.71 877.077 1804.02 877.456 1804.26C877.84 1804.49 878.258 1804.6 878.712 1804.6ZM884.452 1806V1798H886.116V1798.85C886.394 1798.52 886.732 1798.26 887.132 1798.06C887.538 1797.87 887.975 1797.78 888.444 1797.78C889.015 1797.78 889.54 1797.91 890.02 1798.19C890.5 1798.46 890.882 1798.83 891.164 1799.28C891.447 1798.83 891.823 1798.46 892.292 1798.19C892.767 1797.91 893.29 1797.78 893.86 1797.78C894.452 1797.78 894.991 1797.92 895.476 1798.21C895.962 1798.5 896.348 1798.88 896.636 1799.37C896.924 1799.85 897.068 1800.39 897.068 1800.98V1806H895.404V1801.41C895.404 1801.06 895.319 1800.73 895.148 1800.44C894.978 1800.15 894.748 1799.91 894.46 1799.73C894.172 1799.55 893.852 1799.46 893.5 1799.46C893.148 1799.46 892.828 1799.54 892.54 1799.71C892.252 1799.88 892.023 1800.11 891.852 1800.41C891.682 1800.7 891.596 1801.03 891.596 1801.41V1806H889.932V1801.41C889.932 1801.03 889.847 1800.7 889.676 1800.41C889.506 1800.11 889.274 1799.88 888.98 1799.71C888.692 1799.54 888.372 1799.46 888.02 1799.46C887.674 1799.46 887.354 1799.55 887.06 1799.73C886.772 1799.91 886.543 1800.15 886.372 1800.44C886.202 1800.73 886.116 1801.06 886.116 1801.41V1806H884.452ZM902.035 1806.21C901.299 1806.21 900.627 1806.02 900.019 1805.64C899.416 1805.26 898.933 1804.75 898.571 1804.12C898.213 1803.48 898.035 1802.77 898.035 1802C898.035 1801.41 898.139 1800.87 898.347 1800.36C898.555 1799.85 898.84 1799.4 899.203 1799.02C899.571 1798.63 899.997 1798.32 900.483 1798.1C900.968 1797.89 901.485 1797.78 902.035 1797.78C902.648 1797.78 903.211 1797.9 903.723 1798.16C904.235 1798.41 904.672 1798.76 905.035 1799.21C905.397 1799.65 905.664 1800.16 905.835 1800.74C906.005 1801.32 906.056 1801.93 905.987 1802.58H899.819C899.888 1802.95 900.021 1803.29 900.219 1803.58C900.421 1803.88 900.677 1804.11 900.987 1804.28C901.301 1804.45 901.651 1804.54 902.035 1804.54C902.44 1804.54 902.808 1804.44 903.139 1804.24C903.475 1804.04 903.749 1803.76 903.963 1803.4L905.651 1803.79C905.331 1804.5 904.848 1805.08 904.203 1805.54C903.557 1805.98 902.835 1806.21 902.035 1806.21ZM899.763 1801.31H904.307C904.253 1800.93 904.117 1800.58 903.899 1800.27C903.685 1799.96 903.416 1799.71 903.091 1799.53C902.771 1799.34 902.419 1799.25 902.035 1799.25C901.656 1799.25 901.304 1799.34 900.979 1799.52C900.659 1799.7 900.392 1799.95 900.179 1800.26C899.971 1800.57 899.832 1800.92 899.763 1801.31ZM911.296 1806V1794.8H915C915.773 1794.8 916.499 1794.95 917.176 1795.24C917.853 1795.53 918.448 1795.93 918.96 1796.45C919.472 1796.96 919.872 1797.55 920.16 1798.23C920.453 1798.9 920.6 1799.63 920.6 1800.4C920.6 1801.17 920.453 1801.9 920.16 1802.58C919.872 1803.25 919.472 1803.84 918.96 1804.36C918.448 1804.87 917.853 1805.27 917.176 1805.57C916.499 1805.86 915.773 1806 915 1806H911.296ZM912.64 1804.66H915C915.587 1804.66 916.136 1804.55 916.648 1804.33C917.165 1804.1 917.619 1803.8 918.008 1803.41C918.397 1803.02 918.701 1802.57 918.92 1802.06C919.144 1801.54 919.256 1800.99 919.256 1800.4C919.256 1799.81 919.144 1799.26 918.92 1798.75C918.701 1798.23 918.395 1797.78 918 1797.39C917.611 1797 917.16 1796.7 916.648 1796.48C916.136 1796.26 915.587 1796.14 915 1796.14H912.64V1804.66ZM925.425 1806.21C924.689 1806.21 924.017 1806.02 923.409 1805.64C922.807 1805.26 922.324 1804.75 921.961 1804.12C921.604 1803.48 921.425 1802.77 921.425 1802C921.425 1801.41 921.529 1800.87 921.737 1800.36C921.945 1799.85 922.231 1799.4 922.593 1799.02C922.961 1798.63 923.388 1798.32 923.873 1798.1C924.359 1797.89 924.876 1797.78 925.425 1797.78C926.028 1797.78 926.58 1797.9 927.081 1798.14C927.588 1798.38 928.02 1798.72 928.377 1799.15C928.74 1799.58 929.009 1800.09 929.185 1800.66C929.367 1801.23 929.433 1801.84 929.385 1802.49H922.857C922.921 1802.94 923.071 1803.35 923.305 1803.7C923.54 1804.06 923.839 1804.34 924.201 1804.54C924.569 1804.75 924.977 1804.86 925.425 1804.86C925.905 1804.86 926.34 1804.74 926.729 1804.5C927.119 1804.25 927.433 1803.9 927.673 1803.47L929.041 1803.79C928.721 1804.5 928.239 1805.08 927.593 1805.54C926.948 1805.98 926.225 1806.21 925.425 1806.21ZM922.817 1801.43H928.033C927.991 1800.98 927.847 1800.58 927.601 1800.21C927.356 1799.83 927.044 1799.54 926.665 1799.31C926.287 1799.09 925.873 1798.98 925.425 1798.98C924.977 1798.98 924.567 1799.09 924.193 1799.3C923.82 1799.52 923.511 1799.82 923.265 1800.19C923.025 1800.56 922.876 1800.97 922.817 1801.43ZM933.205 1806.15C932.773 1806.14 932.351 1806.06 931.941 1805.91C931.535 1805.76 931.178 1805.56 930.869 1805.31C930.565 1805.06 930.343 1804.76 930.205 1804.43L931.357 1803.94C931.437 1804.12 931.581 1804.29 931.789 1804.45C931.997 1804.61 932.237 1804.74 932.509 1804.83C932.781 1804.93 933.055 1804.98 933.333 1804.98C933.626 1804.98 933.901 1804.93 934.157 1804.84C934.413 1804.75 934.621 1804.62 934.781 1804.44C934.946 1804.26 935.029 1804.04 935.029 1803.79C935.029 1803.53 934.938 1803.32 934.757 1803.17C934.581 1803.01 934.357 1802.89 934.085 1802.81C933.818 1802.72 933.546 1802.63 933.269 1802.55C932.719 1802.41 932.229 1802.25 931.797 1802.06C931.365 1801.86 931.023 1801.61 930.773 1801.31C930.527 1801.01 930.405 1800.62 930.405 1800.15C930.405 1799.66 930.541 1799.23 930.813 1798.86C931.09 1798.5 931.453 1798.22 931.901 1798.02C932.349 1797.83 932.829 1797.73 933.341 1797.73C933.986 1797.73 934.575 1797.87 935.109 1798.14C935.642 1798.42 936.039 1798.8 936.301 1799.27L935.221 1799.9C935.13 1799.71 934.991 1799.54 934.805 1799.4C934.618 1799.25 934.405 1799.13 934.165 1799.05C933.925 1798.96 933.679 1798.92 933.429 1798.91C933.119 1798.9 932.829 1798.94 932.557 1799.03C932.29 1799.12 932.074 1799.26 931.909 1799.45C931.749 1799.63 931.669 1799.86 931.669 1800.13C931.669 1800.39 931.754 1800.6 931.925 1800.74C932.101 1800.87 932.327 1800.99 932.605 1801.07C932.887 1801.15 933.194 1801.25 933.525 1801.35C934.01 1801.51 934.463 1801.69 934.885 1801.89C935.306 1802.09 935.645 1802.34 935.901 1802.65C936.162 1802.95 936.29 1803.33 936.285 1803.78C936.285 1804.27 936.138 1804.7 935.845 1805.06C935.551 1805.43 935.17 1805.7 934.701 1805.9C934.237 1806.09 933.738 1806.17 933.205 1806.15ZM937.546 1798H938.89V1806H937.546V1798ZM938.234 1796.7C938.021 1796.7 937.842 1796.63 937.698 1796.49C937.554 1796.35 937.482 1796.18 937.482 1795.97C937.482 1795.76 937.554 1795.59 937.698 1795.45C937.842 1795.31 938.018 1795.24 938.226 1795.24C938.434 1795.24 938.61 1795.31 938.754 1795.45C938.898 1795.59 938.97 1795.76 938.97 1795.97C938.97 1796.18 938.898 1796.35 938.754 1796.49C938.615 1796.63 938.442 1796.7 938.234 1796.7ZM946.95 1798H948.294V1806.26C948.294 1806.78 948.18 1807.27 947.95 1807.73C947.726 1808.19 947.422 1808.58 947.038 1808.92C946.654 1809.26 946.217 1809.53 945.726 1809.71C945.236 1809.9 944.724 1810 944.19 1810C943.636 1810 943.1 1809.87 942.582 1809.62C942.065 1809.38 941.612 1809.05 941.222 1808.63C940.838 1808.22 940.561 1807.76 940.39 1807.25L941.622 1806.69C941.724 1807.06 941.905 1807.39 942.166 1807.68C942.433 1807.98 942.742 1808.21 943.094 1808.38C943.452 1808.56 943.817 1808.65 944.19 1808.65C944.542 1808.65 944.881 1808.59 945.206 1808.46C945.537 1808.34 945.833 1808.17 946.094 1807.95C946.361 1807.74 946.569 1807.49 946.718 1807.19C946.873 1806.9 946.95 1806.59 946.95 1806.26V1804.66C946.678 1805.12 946.318 1805.5 945.87 1805.78C945.428 1806.07 944.91 1806.21 944.318 1806.21C943.753 1806.21 943.222 1806.1 942.726 1805.88C942.23 1805.66 941.796 1805.36 941.422 1804.98C941.049 1804.59 940.756 1804.14 940.542 1803.63C940.329 1803.13 940.222 1802.58 940.222 1802C940.222 1801.42 940.329 1800.87 940.542 1800.37C940.756 1799.86 941.049 1799.41 941.422 1799.02C941.796 1798.63 942.23 1798.33 942.726 1798.11C943.222 1797.89 943.753 1797.78 944.318 1797.78C944.91 1797.78 945.428 1797.93 945.87 1798.21C946.318 1798.49 946.678 1798.86 946.95 1799.33V1798ZM944.326 1804.9C944.844 1804.9 945.292 1804.77 945.67 1804.5C946.054 1804.24 946.35 1803.88 946.558 1803.44C946.766 1803 946.87 1802.52 946.87 1802C946.87 1801.47 946.764 1800.98 946.55 1800.54C946.342 1800.1 946.046 1799.75 945.662 1799.49C945.284 1799.22 944.838 1799.09 944.326 1799.09C943.825 1799.09 943.366 1799.22 942.95 1799.48C942.534 1799.74 942.204 1800.09 941.958 1800.54C941.718 1800.97 941.598 1801.46 941.598 1802C941.598 1802.54 941.721 1803.03 941.966 1803.47C942.217 1803.91 942.548 1804.26 942.958 1804.52C943.374 1804.78 943.83 1804.9 944.326 1804.9ZM957.29 1801.02V1806H955.946V1801.32C955.946 1800.91 955.847 1800.55 955.65 1800.22C955.452 1799.89 955.188 1799.62 954.858 1799.43C954.527 1799.23 954.159 1799.14 953.754 1799.14C953.354 1799.14 952.986 1799.23 952.65 1799.43C952.319 1799.62 952.055 1799.89 951.858 1800.22C951.66 1800.55 951.562 1800.91 951.562 1801.32V1806H950.218V1798H951.562V1799C951.844 1798.63 952.202 1798.33 952.634 1798.11C953.066 1797.89 953.535 1797.78 954.042 1797.78C954.639 1797.78 955.183 1797.92 955.674 1798.22C956.17 1798.5 956.562 1798.89 956.85 1799.38C957.143 1799.87 957.29 1800.42 957.29 1801.02ZM962.253 1806.21C961.517 1806.21 960.845 1806.02 960.237 1805.64C959.635 1805.26 959.152 1804.75 958.789 1804.12C958.432 1803.48 958.253 1802.77 958.253 1802C958.253 1801.41 958.357 1800.87 958.565 1800.36C958.773 1799.85 959.059 1799.4 959.421 1799.02C959.789 1798.63 960.216 1798.32 960.701 1798.1C961.187 1797.89 961.704 1797.78 962.253 1797.78C962.856 1797.78 963.408 1797.9 963.909 1798.14C964.416 1798.38 964.848 1798.72 965.205 1799.15C965.568 1799.58 965.837 1800.09 966.013 1800.66C966.195 1801.23 966.261 1801.84 966.213 1802.49H959.685C959.749 1802.94 959.899 1803.35 960.133 1803.7C960.368 1804.06 960.667 1804.34 961.029 1804.54C961.397 1804.75 961.805 1804.86 962.253 1804.86C962.733 1804.86 963.168 1804.74 963.557 1804.5C963.947 1804.25 964.261 1803.9 964.501 1803.47L965.869 1803.79C965.549 1804.5 965.067 1805.08 964.421 1805.54C963.776 1805.98 963.053 1806.21 962.253 1806.21ZM959.645 1801.43H964.861C964.819 1800.98 964.675 1800.58 964.429 1800.21C964.184 1799.83 963.872 1799.54 963.493 1799.31C963.115 1799.09 962.701 1798.98 962.253 1798.98C961.805 1798.98 961.395 1799.09 961.021 1799.3C960.648 1799.52 960.339 1799.82 960.093 1800.19C959.853 1800.56 959.704 1800.97 959.645 1801.43ZM973.955 1794H975.299V1806H973.955V1804.64C973.683 1805.11 973.317 1805.49 972.859 1805.78C972.4 1806.06 971.861 1806.21 971.243 1806.21C970.661 1806.21 970.117 1806.1 969.611 1805.88C969.104 1805.66 968.656 1805.36 968.267 1804.98C967.883 1804.59 967.581 1804.14 967.363 1803.63C967.144 1803.13 967.035 1802.58 967.035 1802C967.035 1801.42 967.144 1800.87 967.363 1800.37C967.581 1799.86 967.883 1799.41 968.267 1799.02C968.656 1798.63 969.104 1798.33 969.611 1798.11C970.117 1797.89 970.661 1797.78 971.243 1797.78C971.861 1797.78 972.4 1797.93 972.859 1798.22C973.317 1798.5 973.683 1798.88 973.955 1799.35V1794ZM971.259 1804.9C971.787 1804.9 972.243 1804.78 972.627 1804.52C973.016 1804.26 973.315 1803.91 973.523 1803.46C973.736 1803.02 973.843 1802.53 973.843 1802C973.843 1801.46 973.736 1800.97 973.523 1800.53C973.309 1800.09 973.008 1799.74 972.619 1799.48C972.235 1799.22 971.781 1799.09 971.259 1799.09C970.731 1799.09 970.251 1799.22 969.819 1799.48C969.392 1799.74 969.051 1800.09 968.795 1800.54C968.539 1800.97 968.411 1801.46 968.411 1802C968.411 1802.54 968.541 1803.03 968.803 1803.47C969.064 1803.91 969.411 1804.26 969.843 1804.52C970.275 1804.78 970.747 1804.9 971.259 1804.9ZM981.062 1806V1794.8H984.926C985.48 1794.8 985.984 1794.91 986.438 1795.14C986.896 1795.37 987.259 1795.7 987.526 1796.13C987.792 1796.56 987.926 1797.08 987.926 1797.68C987.926 1798.01 987.87 1798.32 987.758 1798.62C987.651 1798.92 987.502 1799.18 987.31 1799.4C987.123 1799.61 986.91 1799.76 986.67 1799.83C987.006 1799.92 987.291 1800.07 987.526 1800.29C987.76 1800.5 987.95 1800.75 988.094 1801.04C988.243 1801.33 988.35 1801.63 988.414 1801.94C988.478 1802.26 988.51 1802.56 988.51 1802.86C988.51 1803.47 988.368 1804.02 988.086 1804.5C987.808 1804.97 987.435 1805.33 986.966 1805.6C986.496 1805.87 985.979 1806 985.414 1806H981.062ZM982.406 1804.82H985.294C985.662 1804.82 985.995 1804.72 986.294 1804.54C986.598 1804.34 986.84 1804.08 987.022 1803.75C987.203 1803.42 987.294 1803.05 987.294 1802.63C987.294 1802.26 987.203 1801.92 987.022 1801.59C986.84 1801.26 986.598 1800.99 986.294 1800.79C985.995 1800.59 985.662 1800.49 985.294 1800.49H982.406V1804.82ZM982.406 1799.33H984.798C985.288 1799.33 985.707 1799.18 986.054 1798.9C986.406 1798.6 986.582 1798.19 986.582 1797.67C986.582 1797.11 986.406 1796.69 986.054 1796.41C985.707 1796.13 985.288 1795.98 984.798 1795.98H982.406V1799.33ZM995.292 1798H996.716L992.34 1810H990.916L992.364 1806L989.492 1798H990.964L993.036 1804.15L995.292 1798ZM1010.63 1794.8V1796.46H1007.06V1806H1005.4V1796.46H1001.84V1794.8H1010.63ZM1019.43 1800.98V1806H1017.77V1801.39C1017.77 1801.03 1017.68 1800.71 1017.51 1800.42C1017.33 1800.12 1017.1 1799.89 1016.81 1799.72C1016.52 1799.54 1016.2 1799.46 1015.83 1799.46C1015.48 1799.46 1015.16 1799.54 1014.87 1799.72C1014.57 1799.89 1014.34 1800.12 1014.16 1800.42C1013.99 1800.71 1013.9 1801.03 1013.9 1801.39V1806H1012.23V1794H1013.9V1798.85C1014.17 1798.52 1014.52 1798.26 1014.92 1798.06C1015.33 1797.87 1015.76 1797.78 1016.23 1797.78C1016.83 1797.78 1017.36 1797.92 1017.85 1798.21C1018.33 1798.5 1018.72 1798.88 1019 1799.37C1019.29 1799.85 1019.43 1800.39 1019.43 1800.98ZM1024.39 1806.21C1023.66 1806.21 1022.99 1806.02 1022.38 1805.64C1021.78 1805.26 1021.29 1804.75 1020.93 1804.12C1020.57 1803.48 1020.39 1802.77 1020.39 1802C1020.39 1801.41 1020.5 1800.87 1020.71 1800.36C1020.91 1799.85 1021.2 1799.4 1021.56 1799.02C1021.93 1798.63 1022.36 1798.32 1022.84 1798.1C1023.33 1797.89 1023.84 1797.78 1024.39 1797.78C1025.01 1797.78 1025.57 1797.9 1026.08 1798.16C1026.59 1798.41 1027.03 1798.76 1027.39 1799.21C1027.76 1799.65 1028.02 1800.16 1028.19 1800.74C1028.36 1801.32 1028.42 1801.93 1028.35 1802.58H1022.18C1022.25 1802.95 1022.38 1803.29 1022.58 1803.58C1022.78 1803.88 1023.04 1804.11 1023.35 1804.28C1023.66 1804.45 1024.01 1804.54 1024.39 1804.54C1024.8 1804.54 1025.17 1804.44 1025.5 1804.24C1025.83 1804.04 1026.11 1803.76 1026.32 1803.4L1028.01 1803.79C1027.69 1804.5 1027.21 1805.08 1026.56 1805.54C1025.92 1805.98 1025.19 1806.21 1024.39 1806.21ZM1022.12 1801.31H1026.67C1026.61 1800.93 1026.48 1800.58 1026.26 1800.27C1026.04 1799.96 1025.78 1799.71 1025.45 1799.53C1025.13 1799.34 1024.78 1799.25 1024.39 1799.25C1024.02 1799.25 1023.66 1799.34 1023.34 1799.52C1023.02 1799.7 1022.75 1799.95 1022.54 1800.26C1022.33 1800.57 1022.19 1800.92 1022.12 1801.31ZM1029.67 1806V1798H1031.33V1798.85C1031.61 1798.52 1031.95 1798.26 1032.35 1798.06C1032.76 1797.87 1033.19 1797.78 1033.66 1797.78C1034.23 1797.78 1034.76 1797.91 1035.24 1798.19C1035.72 1798.46 1036.1 1798.83 1036.38 1799.28C1036.67 1798.83 1037.04 1798.46 1037.51 1798.19C1037.99 1797.91 1038.51 1797.78 1039.08 1797.78C1039.67 1797.78 1040.21 1797.92 1040.69 1798.21C1041.18 1798.5 1041.57 1798.88 1041.85 1799.37C1042.14 1799.85 1042.29 1800.39 1042.29 1800.98V1806H1040.62V1801.41C1040.62 1801.06 1040.54 1800.73 1040.37 1800.44C1040.2 1800.15 1039.97 1799.91 1039.68 1799.73C1039.39 1799.55 1039.07 1799.46 1038.72 1799.46C1038.37 1799.46 1038.05 1799.54 1037.76 1799.71C1037.47 1799.88 1037.24 1800.11 1037.07 1800.41C1036.9 1800.7 1036.81 1801.03 1036.81 1801.41V1806H1035.15V1801.41C1035.15 1801.03 1035.07 1800.7 1034.89 1800.41C1034.72 1800.11 1034.49 1799.88 1034.2 1799.71C1033.91 1799.54 1033.59 1799.46 1033.24 1799.46C1032.89 1799.46 1032.57 1799.55 1032.28 1799.73C1031.99 1799.91 1031.76 1800.15 1031.59 1800.44C1031.42 1800.73 1031.33 1801.06 1031.33 1801.41V1806H1029.67ZM1047.25 1806.21C1046.52 1806.21 1045.85 1806.02 1045.24 1805.64C1044.63 1805.26 1044.15 1804.75 1043.79 1804.12C1043.43 1803.48 1043.25 1802.77 1043.25 1802C1043.25 1801.41 1043.36 1800.87 1043.57 1800.36C1043.77 1799.85 1044.06 1799.4 1044.42 1799.02C1044.79 1798.63 1045.22 1798.32 1045.7 1798.1C1046.19 1797.89 1046.7 1797.78 1047.25 1797.78C1047.87 1797.78 1048.43 1797.9 1048.94 1798.16C1049.45 1798.41 1049.89 1798.76 1050.25 1799.21C1050.62 1799.65 1050.88 1800.16 1051.05 1800.74C1051.22 1801.32 1051.27 1801.93 1051.21 1802.58H1045.04C1045.11 1802.95 1045.24 1803.29 1045.44 1803.58C1045.64 1803.88 1045.9 1804.11 1046.21 1804.28C1046.52 1804.45 1046.87 1804.54 1047.25 1804.54C1047.66 1804.54 1048.03 1804.44 1048.36 1804.24C1048.69 1804.04 1048.97 1803.76 1049.18 1803.4L1050.87 1803.79C1050.55 1804.5 1050.07 1805.08 1049.42 1805.54C1048.78 1805.98 1048.05 1806.21 1047.25 1806.21ZM1044.98 1801.31H1049.53C1049.47 1800.93 1049.34 1800.58 1049.12 1800.27C1048.9 1799.96 1048.63 1799.71 1048.31 1799.53C1047.99 1799.34 1047.64 1799.25 1047.25 1799.25C1046.87 1799.25 1046.52 1799.34 1046.2 1799.52C1045.88 1799.7 1045.61 1799.95 1045.4 1800.26C1045.19 1800.57 1045.05 1800.92 1044.98 1801.31ZM1059.73 1800.98V1806H1058.07V1801.39C1058.07 1801.03 1057.98 1800.71 1057.8 1800.42C1057.63 1800.12 1057.4 1799.89 1057.11 1799.72C1056.82 1799.54 1056.49 1799.46 1056.13 1799.46C1055.78 1799.46 1055.46 1799.54 1055.16 1799.72C1054.87 1799.89 1054.63 1800.12 1054.46 1800.42C1054.28 1800.71 1054.19 1801.03 1054.19 1801.39V1806H1052.53V1798H1054.19V1798.85C1054.47 1798.52 1054.81 1798.26 1055.22 1798.06C1055.62 1797.87 1056.06 1797.78 1056.53 1797.78C1057.12 1797.78 1057.66 1797.92 1058.15 1798.21C1058.63 1798.5 1059.02 1798.88 1059.3 1799.37C1059.59 1799.85 1059.73 1800.39 1059.73 1800.98ZM1067.39 1798H1069.06V1806H1067.39L1067.32 1804.84C1067.09 1805.25 1066.77 1805.58 1066.37 1805.83C1065.97 1806.08 1065.5 1806.21 1064.95 1806.21C1064.37 1806.21 1063.82 1806.1 1063.3 1805.88C1062.78 1805.66 1062.33 1805.35 1061.93 1804.95C1061.54 1804.56 1061.24 1804.1 1061.02 1803.59C1060.8 1803.07 1060.69 1802.52 1060.69 1801.93C1060.69 1801.36 1060.8 1800.82 1061.01 1800.32C1061.22 1799.81 1061.52 1799.37 1061.9 1798.99C1062.28 1798.61 1062.71 1798.32 1063.21 1798.1C1063.71 1797.89 1064.25 1797.78 1064.82 1797.78C1065.4 1797.78 1065.91 1797.91 1066.35 1798.18C1066.8 1798.44 1067.17 1798.77 1067.47 1799.18L1067.39 1798ZM1064.91 1804.6C1065.38 1804.6 1065.79 1804.49 1066.15 1804.26C1066.5 1804.02 1066.77 1803.71 1066.96 1803.31C1067.16 1802.92 1067.26 1802.48 1067.26 1802C1067.26 1801.51 1067.16 1801.07 1066.96 1800.68C1066.77 1800.29 1066.49 1799.97 1066.14 1799.74C1065.79 1799.51 1065.38 1799.39 1064.91 1799.39C1064.45 1799.39 1064.03 1799.51 1063.64 1799.74C1063.26 1799.98 1062.95 1800.29 1062.73 1800.69C1062.51 1801.08 1062.39 1801.52 1062.39 1802C1062.39 1802.49 1062.51 1802.93 1062.74 1803.32C1062.97 1803.71 1063.28 1804.02 1063.66 1804.26C1064.04 1804.49 1064.46 1804.6 1064.91 1804.6ZM1070.66 1806V1798H1072.32V1798.85C1072.6 1798.52 1072.94 1798.26 1073.34 1798.06C1073.74 1797.87 1074.18 1797.78 1074.65 1797.78C1075.22 1797.78 1075.74 1797.91 1076.22 1798.19C1076.7 1798.46 1077.08 1798.83 1077.37 1799.28C1077.65 1798.83 1078.03 1798.46 1078.5 1798.19C1078.97 1797.91 1079.49 1797.78 1080.06 1797.78C1080.66 1797.78 1081.19 1797.92 1081.68 1798.21C1082.16 1798.5 1082.55 1798.88 1082.84 1799.37C1083.13 1799.85 1083.27 1800.39 1083.27 1800.98V1806H1081.61V1801.41C1081.61 1801.06 1081.52 1800.73 1081.35 1800.44C1081.18 1800.15 1080.95 1799.91 1080.66 1799.73C1080.38 1799.55 1080.06 1799.46 1079.7 1799.46C1079.35 1799.46 1079.03 1799.54 1078.74 1799.71C1078.46 1799.88 1078.23 1800.11 1078.06 1800.41C1077.88 1800.7 1077.8 1801.03 1077.8 1801.41V1806H1076.14V1801.41C1076.14 1801.03 1076.05 1800.7 1075.88 1800.41C1075.71 1800.11 1075.48 1799.88 1075.18 1799.71C1074.9 1799.54 1074.58 1799.46 1074.22 1799.46C1073.88 1799.46 1073.56 1799.55 1073.26 1799.73C1072.98 1799.91 1072.75 1800.15 1072.58 1800.44C1072.4 1800.73 1072.32 1801.06 1072.32 1801.41V1806H1070.66ZM1088.24 1806.21C1087.5 1806.21 1086.83 1806.02 1086.22 1805.64C1085.62 1805.26 1085.14 1804.75 1084.77 1804.12C1084.42 1803.48 1084.24 1802.77 1084.24 1802C1084.24 1801.41 1084.34 1800.87 1084.55 1800.36C1084.76 1799.85 1085.04 1799.4 1085.41 1799.02C1085.77 1798.63 1086.2 1798.32 1086.69 1798.1C1087.17 1797.89 1087.69 1797.78 1088.24 1797.78C1088.85 1797.78 1089.41 1797.9 1089.93 1798.16C1090.44 1798.41 1090.88 1798.76 1091.24 1799.21C1091.6 1799.65 1091.87 1800.16 1092.04 1800.74C1092.21 1801.32 1092.26 1801.93 1092.19 1802.58H1086.02C1086.09 1802.95 1086.22 1803.29 1086.42 1803.58C1086.62 1803.88 1086.88 1804.11 1087.19 1804.28C1087.5 1804.45 1087.85 1804.54 1088.24 1804.54C1088.64 1804.54 1089.01 1804.44 1089.34 1804.24C1089.68 1804.04 1089.95 1803.76 1090.17 1803.4L1091.85 1803.79C1091.53 1804.5 1091.05 1805.08 1090.41 1805.54C1089.76 1805.98 1089.04 1806.21 1088.24 1806.21ZM1085.97 1801.31H1090.51C1090.46 1800.93 1090.32 1800.58 1090.1 1800.27C1089.89 1799.96 1089.62 1799.71 1089.29 1799.53C1088.97 1799.34 1088.62 1799.25 1088.24 1799.25C1087.86 1799.25 1087.51 1799.34 1087.18 1799.52C1086.86 1799.7 1086.6 1799.95 1086.38 1800.26C1086.17 1800.57 1086.04 1800.92 1085.97 1801.31ZM1094.06 1806.21C1093.86 1806.21 1093.69 1806.14 1093.54 1805.99C1093.4 1805.85 1093.34 1805.67 1093.34 1805.46C1093.34 1805.27 1093.4 1805.1 1093.54 1804.95C1093.69 1804.81 1093.86 1804.74 1094.06 1804.74C1094.27 1804.74 1094.45 1804.81 1094.59 1804.95C1094.74 1805.1 1094.81 1805.27 1094.81 1805.46C1094.81 1805.67 1094.74 1805.85 1094.59 1805.99C1094.45 1806.14 1094.27 1806.21 1094.06 1806.21ZM1104.33 1794.8H1105.95L1110.03 1806H1108.6L1107.77 1803.71H1102.51L1101.69 1806H1100.26L1104.33 1794.8ZM1103.01 1802.37H1107.27L1105.14 1796.52L1103.01 1802.37ZM1111.48 1806V1794H1112.83V1806H1111.48ZM1114.75 1806V1794H1116.09V1806H1114.75ZM1121.86 1806V1794.8H1125.79C1126.39 1794.8 1126.93 1794.95 1127.41 1795.24C1127.9 1795.53 1128.28 1795.93 1128.56 1796.43C1128.85 1796.93 1128.99 1797.48 1128.99 1798.1C1128.99 1798.63 1128.89 1799.13 1128.67 1799.57C1128.46 1800.01 1128.17 1800.38 1127.79 1800.68C1127.43 1800.97 1127.01 1801.18 1126.54 1801.29L1129.26 1806H1127.71L1125.03 1801.4H1123.2V1806H1121.86ZM1123.2 1800.06H1125.66C1126.02 1800.06 1126.35 1799.97 1126.66 1799.79C1126.96 1799.61 1127.2 1799.37 1127.38 1799.06C1127.56 1798.75 1127.65 1798.41 1127.65 1798.02C1127.65 1797.63 1127.56 1797.29 1127.38 1796.98C1127.2 1796.67 1126.96 1796.43 1126.66 1796.26C1126.35 1796.07 1126.02 1795.98 1125.66 1795.98H1123.2V1800.06ZM1130.76 1798H1132.11V1806H1130.76V1798ZM1131.45 1796.7C1131.24 1796.7 1131.06 1796.63 1130.92 1796.49C1130.77 1796.35 1130.7 1796.18 1130.7 1795.97C1130.7 1795.76 1130.77 1795.59 1130.92 1795.45C1131.06 1795.31 1131.24 1795.24 1131.44 1795.24C1131.65 1795.24 1131.83 1795.31 1131.97 1795.45C1132.12 1795.59 1132.19 1795.76 1132.19 1795.97C1132.19 1796.18 1132.12 1796.35 1131.97 1796.49C1131.83 1796.63 1131.66 1796.7 1131.45 1796.7ZM1140.17 1798H1141.51V1806.26C1141.51 1806.78 1141.4 1807.27 1141.17 1807.73C1140.94 1808.19 1140.64 1808.58 1140.26 1808.92C1139.87 1809.26 1139.44 1809.53 1138.94 1809.71C1138.45 1809.9 1137.94 1810 1137.41 1810C1136.85 1810 1136.32 1809.87 1135.8 1809.62C1135.28 1809.38 1134.83 1809.05 1134.44 1808.63C1134.06 1808.22 1133.78 1807.76 1133.61 1807.25L1134.84 1806.69C1134.94 1807.06 1135.12 1807.39 1135.38 1807.68C1135.65 1807.98 1135.96 1808.21 1136.31 1808.38C1136.67 1808.56 1137.04 1808.65 1137.41 1808.65C1137.76 1808.65 1138.1 1808.59 1138.42 1808.46C1138.76 1808.34 1139.05 1808.17 1139.31 1807.95C1139.58 1807.74 1139.79 1807.49 1139.94 1807.19C1140.09 1806.9 1140.17 1806.59 1140.17 1806.26V1804.66C1139.9 1805.12 1139.54 1805.5 1139.09 1805.78C1138.65 1806.07 1138.13 1806.21 1137.54 1806.21C1136.97 1806.21 1136.44 1806.1 1135.94 1805.88C1135.45 1805.66 1135.01 1805.36 1134.64 1804.98C1134.27 1804.59 1133.97 1804.14 1133.76 1803.63C1133.55 1803.13 1133.44 1802.58 1133.44 1802C1133.44 1801.42 1133.55 1800.87 1133.76 1800.37C1133.97 1799.86 1134.27 1799.41 1134.64 1799.02C1135.01 1798.63 1135.45 1798.33 1135.94 1798.11C1136.44 1797.89 1136.97 1797.78 1137.54 1797.78C1138.13 1797.78 1138.65 1797.93 1139.09 1798.21C1139.54 1798.49 1139.9 1798.86 1140.17 1799.33V1798ZM1137.54 1804.9C1138.06 1804.9 1138.51 1804.77 1138.89 1804.5C1139.27 1804.24 1139.57 1803.88 1139.78 1803.44C1139.98 1803 1140.09 1802.52 1140.09 1802C1140.09 1801.47 1139.98 1800.98 1139.77 1800.54C1139.56 1800.1 1139.26 1799.75 1138.88 1799.49C1138.5 1799.22 1138.06 1799.09 1137.54 1799.09C1137.04 1799.09 1136.58 1799.22 1136.17 1799.48C1135.75 1799.74 1135.42 1800.09 1135.18 1800.54C1134.94 1800.97 1134.82 1801.46 1134.82 1802C1134.82 1802.54 1134.94 1803.03 1135.18 1803.47C1135.44 1803.91 1135.77 1804.26 1136.18 1804.52C1136.59 1804.78 1137.05 1804.9 1137.54 1804.9ZM1150.51 1801.02V1806H1149.16V1801.32C1149.16 1800.91 1149.07 1800.55 1148.87 1800.22C1148.67 1799.89 1148.41 1799.62 1148.08 1799.43C1147.75 1799.23 1147.38 1799.14 1146.97 1799.14C1146.57 1799.14 1146.2 1799.23 1145.87 1799.43C1145.54 1799.62 1145.27 1799.89 1145.08 1800.22C1144.88 1800.55 1144.78 1800.91 1144.78 1801.32V1806H1143.44V1794H1144.78V1799C1145.06 1798.63 1145.42 1798.33 1145.85 1798.11C1146.28 1797.89 1146.75 1797.78 1147.26 1797.78C1147.86 1797.78 1148.4 1797.92 1148.89 1798.22C1149.39 1798.5 1149.78 1798.89 1150.07 1799.38C1150.36 1799.87 1150.51 1800.42 1150.51 1801.02ZM1156.25 1799.34H1154.44L1154.43 1806H1153.08L1153.09 1799.34H1151.72V1798H1153.09L1153.08 1795.49H1154.43L1154.44 1798H1156.25V1799.34ZM1160.05 1806.15C1159.62 1806.14 1159.2 1806.06 1158.78 1805.91C1158.38 1805.76 1158.02 1805.56 1157.71 1805.31C1157.41 1805.06 1157.19 1804.76 1157.05 1804.43L1158.2 1803.94C1158.28 1804.12 1158.42 1804.29 1158.63 1804.45C1158.84 1804.61 1159.08 1804.74 1159.35 1804.83C1159.62 1804.93 1159.9 1804.98 1160.18 1804.98C1160.47 1804.98 1160.74 1804.93 1161 1804.84C1161.26 1804.75 1161.46 1804.62 1161.62 1804.44C1161.79 1804.26 1161.87 1804.04 1161.87 1803.79C1161.87 1803.53 1161.78 1803.32 1161.6 1803.17C1161.42 1803.01 1161.2 1802.89 1160.93 1802.81C1160.66 1802.72 1160.39 1802.63 1160.11 1802.55C1159.56 1802.41 1159.07 1802.25 1158.64 1802.06C1158.21 1801.86 1157.87 1801.61 1157.62 1801.31C1157.37 1801.01 1157.25 1800.62 1157.25 1800.15C1157.25 1799.66 1157.38 1799.23 1157.66 1798.86C1157.93 1798.5 1158.3 1798.22 1158.74 1798.02C1159.19 1797.83 1159.67 1797.73 1160.18 1797.73C1160.83 1797.73 1161.42 1797.87 1161.95 1798.14C1162.49 1798.42 1162.88 1798.8 1163.14 1799.27L1162.06 1799.9C1161.97 1799.71 1161.84 1799.54 1161.65 1799.4C1161.46 1799.25 1161.25 1799.13 1161.01 1799.05C1160.77 1798.96 1160.52 1798.92 1160.27 1798.91C1159.96 1798.9 1159.67 1798.94 1159.4 1799.03C1159.13 1799.12 1158.92 1799.26 1158.75 1799.45C1158.59 1799.63 1158.51 1799.86 1158.51 1800.13C1158.51 1800.39 1158.6 1800.6 1158.77 1800.74C1158.94 1800.87 1159.17 1800.99 1159.45 1801.07C1159.73 1801.15 1160.04 1801.25 1160.37 1801.35C1160.85 1801.51 1161.31 1801.69 1161.73 1801.89C1162.15 1802.09 1162.49 1802.34 1162.74 1802.65C1163.01 1802.95 1163.13 1803.33 1163.13 1803.78C1163.13 1804.27 1162.98 1804.7 1162.69 1805.06C1162.4 1805.43 1162.01 1805.7 1161.54 1805.9C1161.08 1806.09 1160.58 1806.17 1160.05 1806.15ZM1168.34 1806V1794.8H1172.28C1172.88 1794.8 1173.41 1794.95 1173.89 1795.24C1174.38 1795.53 1174.76 1795.93 1175.05 1796.43C1175.33 1796.93 1175.48 1797.48 1175.48 1798.1C1175.48 1798.63 1175.37 1799.13 1175.16 1799.57C1174.95 1800.01 1174.65 1800.38 1174.28 1800.68C1173.91 1800.97 1173.49 1801.18 1173.02 1801.29L1175.74 1806H1174.19L1171.52 1801.4H1169.69V1806H1168.34ZM1169.69 1800.06H1172.14C1172.51 1800.06 1172.84 1799.97 1173.14 1799.79C1173.45 1799.61 1173.69 1799.37 1173.86 1799.06C1174.04 1798.75 1174.13 1798.41 1174.13 1798.02C1174.13 1797.63 1174.04 1797.29 1173.86 1796.98C1173.69 1796.67 1173.45 1796.43 1173.14 1796.26C1172.84 1796.07 1172.51 1795.98 1172.14 1795.98H1169.69V1800.06ZM1180.58 1806.21C1179.85 1806.21 1179.17 1806.02 1178.57 1805.64C1177.96 1805.26 1177.48 1804.75 1177.12 1804.12C1176.76 1803.48 1176.58 1802.77 1176.58 1802C1176.58 1801.41 1176.69 1800.87 1176.89 1800.36C1177.1 1799.85 1177.39 1799.4 1177.75 1799.02C1178.12 1798.63 1178.54 1798.32 1179.03 1798.1C1179.51 1797.89 1180.03 1797.78 1180.58 1797.78C1181.18 1797.78 1181.74 1797.9 1182.24 1798.14C1182.74 1798.38 1183.18 1798.72 1183.53 1799.15C1183.9 1799.58 1184.17 1800.09 1184.34 1800.66C1184.52 1801.23 1184.59 1801.84 1184.54 1802.49H1178.01C1178.08 1802.94 1178.23 1803.35 1178.46 1803.7C1178.7 1804.06 1178.99 1804.34 1179.36 1804.54C1179.73 1804.75 1180.13 1804.86 1180.58 1804.86C1181.06 1804.86 1181.5 1804.74 1181.89 1804.5C1182.27 1804.25 1182.59 1803.9 1182.83 1803.47L1184.2 1803.79C1183.88 1804.5 1183.39 1805.08 1182.75 1805.54C1182.1 1805.98 1181.38 1806.21 1180.58 1806.21ZM1177.97 1801.43H1183.19C1183.15 1800.98 1183 1800.58 1182.76 1800.21C1182.51 1799.83 1182.2 1799.54 1181.82 1799.31C1181.44 1799.09 1181.03 1798.98 1180.58 1798.98C1180.13 1798.98 1179.72 1799.09 1179.35 1799.3C1178.98 1799.52 1178.67 1799.82 1178.42 1800.19C1178.18 1800.56 1178.03 1800.97 1177.97 1801.43ZM1188.36 1806.15C1187.93 1806.14 1187.51 1806.06 1187.1 1805.91C1186.69 1805.76 1186.33 1805.56 1186.02 1805.31C1185.72 1805.06 1185.5 1804.76 1185.36 1804.43L1186.51 1803.94C1186.59 1804.12 1186.74 1804.29 1186.94 1804.45C1187.15 1804.61 1187.39 1804.74 1187.66 1804.83C1187.94 1804.93 1188.21 1804.98 1188.49 1804.98C1188.78 1804.98 1189.06 1804.93 1189.31 1804.84C1189.57 1804.75 1189.78 1804.62 1189.94 1804.44C1190.1 1804.26 1190.18 1804.04 1190.18 1803.79C1190.18 1803.53 1190.09 1803.32 1189.91 1803.17C1189.74 1803.01 1189.51 1802.89 1189.24 1802.81C1188.97 1802.72 1188.7 1802.63 1188.42 1802.55C1187.88 1802.41 1187.38 1802.25 1186.95 1802.06C1186.52 1801.86 1186.18 1801.61 1185.93 1801.31C1185.68 1801.01 1185.56 1800.62 1185.56 1800.15C1185.56 1799.66 1185.7 1799.23 1185.97 1798.86C1186.25 1798.5 1186.61 1798.22 1187.06 1798.02C1187.5 1797.83 1187.98 1797.73 1188.5 1797.73C1189.14 1797.73 1189.73 1797.87 1190.26 1798.14C1190.8 1798.42 1191.2 1798.8 1191.46 1799.27L1190.38 1799.9C1190.29 1799.71 1190.15 1799.54 1189.96 1799.4C1189.77 1799.25 1189.56 1799.13 1189.32 1799.05C1189.08 1798.96 1188.84 1798.92 1188.58 1798.91C1188.28 1798.9 1187.98 1798.94 1187.71 1799.03C1187.45 1799.12 1187.23 1799.26 1187.06 1799.45C1186.9 1799.63 1186.82 1799.86 1186.82 1800.13C1186.82 1800.39 1186.91 1800.6 1187.08 1800.74C1187.26 1800.87 1187.48 1800.99 1187.76 1801.07C1188.04 1801.15 1188.35 1801.25 1188.68 1801.35C1189.17 1801.51 1189.62 1801.69 1190.04 1801.89C1190.46 1802.09 1190.8 1802.34 1191.06 1802.65C1191.32 1802.95 1191.45 1803.33 1191.44 1803.78C1191.44 1804.27 1191.29 1804.7 1191 1805.06C1190.71 1805.43 1190.33 1805.7 1189.86 1805.9C1189.39 1806.09 1188.89 1806.17 1188.36 1806.15ZM1196.25 1806.21C1195.52 1806.21 1194.85 1806.02 1194.24 1805.64C1193.63 1805.26 1193.15 1804.75 1192.79 1804.12C1192.43 1803.48 1192.25 1802.77 1192.25 1802C1192.25 1801.41 1192.36 1800.87 1192.57 1800.36C1192.77 1799.85 1193.06 1799.4 1193.42 1799.02C1193.79 1798.63 1194.22 1798.32 1194.7 1798.1C1195.19 1797.89 1195.7 1797.78 1196.25 1797.78C1196.86 1797.78 1197.41 1797.9 1197.91 1798.14C1198.42 1798.38 1198.85 1798.72 1199.21 1799.15C1199.57 1799.58 1199.84 1800.09 1200.01 1800.66C1200.19 1801.23 1200.26 1801.84 1200.21 1802.49H1193.69C1193.75 1802.94 1193.9 1803.35 1194.13 1803.7C1194.37 1804.06 1194.67 1804.34 1195.03 1804.54C1195.4 1804.75 1195.81 1804.86 1196.25 1804.86C1196.73 1804.86 1197.17 1804.74 1197.56 1804.5C1197.95 1804.25 1198.26 1803.9 1198.5 1803.47L1199.87 1803.79C1199.55 1804.5 1199.07 1805.08 1198.42 1805.54C1197.78 1805.98 1197.05 1806.21 1196.25 1806.21ZM1193.65 1801.43H1198.86C1198.82 1800.98 1198.67 1800.58 1198.43 1800.21C1198.18 1799.83 1197.87 1799.54 1197.49 1799.31C1197.11 1799.09 1196.7 1798.98 1196.25 1798.98C1195.81 1798.98 1195.39 1799.09 1195.02 1799.3C1194.65 1799.52 1194.34 1799.82 1194.09 1800.19C1193.85 1800.56 1193.7 1800.97 1193.65 1801.43ZM1201.56 1806V1798H1202.91V1799C1203.19 1798.63 1203.55 1798.33 1203.98 1798.11C1204.41 1797.89 1204.88 1797.78 1205.39 1797.78C1205.69 1797.78 1205.99 1797.82 1206.28 1797.9L1205.74 1799.24C1205.52 1799.17 1205.31 1799.14 1205.1 1799.14C1204.7 1799.14 1204.33 1799.23 1203.99 1799.43C1203.66 1799.62 1203.4 1799.89 1203.2 1800.22C1203 1800.55 1202.91 1800.91 1202.91 1801.32V1806H1201.56ZM1211.57 1806H1209.85L1206.93 1797.98H1208.36L1210.7 1804.44L1213.05 1797.98H1214.48L1211.57 1806ZM1218.99 1806.21C1218.25 1806.21 1217.58 1806.02 1216.97 1805.64C1216.37 1805.26 1215.89 1804.75 1215.52 1804.12C1215.17 1803.48 1214.99 1802.77 1214.99 1802C1214.99 1801.41 1215.09 1800.87 1215.3 1800.36C1215.51 1799.85 1215.79 1799.4 1216.16 1799.02C1216.52 1798.63 1216.95 1798.32 1217.44 1798.1C1217.92 1797.89 1218.44 1797.78 1218.99 1797.78C1219.59 1797.78 1220.14 1797.9 1220.64 1798.14C1221.15 1798.38 1221.58 1798.72 1221.94 1799.15C1222.3 1799.58 1222.57 1800.09 1222.75 1800.66C1222.93 1801.23 1223 1801.84 1222.95 1802.49H1216.42C1216.48 1802.94 1216.63 1803.35 1216.87 1803.7C1217.1 1804.06 1217.4 1804.34 1217.76 1804.54C1218.13 1804.75 1218.54 1804.86 1218.99 1804.86C1219.47 1804.86 1219.9 1804.74 1220.29 1804.5C1220.68 1804.25 1221 1803.9 1221.24 1803.47L1222.6 1803.79C1222.28 1804.5 1221.8 1805.08 1221.16 1805.54C1220.51 1805.98 1219.79 1806.21 1218.99 1806.21ZM1216.38 1801.43H1221.6C1221.55 1800.98 1221.41 1800.58 1221.16 1800.21C1220.92 1799.83 1220.61 1799.54 1220.23 1799.31C1219.85 1799.09 1219.44 1798.98 1218.99 1798.98C1218.54 1798.98 1218.13 1799.09 1217.76 1799.3C1217.38 1799.52 1217.07 1799.82 1216.83 1800.19C1216.59 1800.56 1216.44 1800.97 1216.38 1801.43ZM1230.69 1794H1232.03V1806H1230.69V1804.64C1230.42 1805.11 1230.05 1805.49 1229.59 1805.78C1229.13 1806.06 1228.6 1806.21 1227.98 1806.21C1227.4 1806.21 1226.85 1806.1 1226.35 1805.88C1225.84 1805.66 1225.39 1805.36 1225 1804.98C1224.62 1804.59 1224.32 1804.14 1224.1 1803.63C1223.88 1803.13 1223.77 1802.58 1223.77 1802C1223.77 1801.42 1223.88 1800.87 1224.1 1800.37C1224.32 1799.86 1224.62 1799.41 1225 1799.02C1225.39 1798.63 1225.84 1798.33 1226.35 1798.11C1226.85 1797.89 1227.4 1797.78 1227.98 1797.78C1228.6 1797.78 1229.13 1797.93 1229.59 1798.22C1230.05 1798.5 1230.42 1798.88 1230.69 1799.35V1794ZM1227.99 1804.9C1228.52 1804.9 1228.98 1804.78 1229.36 1804.52C1229.75 1804.26 1230.05 1803.91 1230.26 1803.46C1230.47 1803.02 1230.58 1802.53 1230.58 1802C1230.58 1801.46 1230.47 1800.97 1230.26 1800.53C1230.04 1800.09 1229.74 1799.74 1229.35 1799.48C1228.97 1799.22 1228.52 1799.09 1227.99 1799.09C1227.47 1799.09 1226.99 1799.22 1226.55 1799.48C1226.13 1799.74 1225.79 1800.09 1225.53 1800.54C1225.27 1800.97 1225.15 1801.46 1225.15 1802C1225.15 1802.54 1225.28 1803.03 1225.54 1803.47C1225.8 1803.91 1226.15 1804.26 1226.58 1804.52C1227.01 1804.78 1227.48 1804.9 1227.99 1804.9Z" fill="white"/>
</g>
<defs>
<filter id="filter0_f_340_5934" x="1051" y="-14" width="1178" height="1178" filterUnits="userSpaceOnUse" color-interpolation-filters="sRGB">
<feFlood flood-opacity="0" result="BackgroundImageFix"/>
<feBlend mode="normal" in="SourceGraphic" in2="BackgroundImageFix" result="shape"/>
<feGaussianBlur stdDeviation="200" result="effect1_foregroundBlur_340_5934"/>
</filter>
<filter id="filter1_f_340_5934" x="-324" y="29" width="1178" height="1178" filterUnits="userSpaceOnUse" color-interpolation-filters="sRGB">
<feFlood flood-opacity="0" result="BackgroundImageFix"/>
<feBlend mode="normal" in="SourceGraphic" in2="BackgroundImageFix" result="shape"/>
<feGaussianBlur stdDeviation="200" result="effect1_foregroundBlur_340_5934"/>
</filter>
<filter id="filter2_f_340_5934" x="224" y="-136" width="1507" height="1507" filterUnits="userSpaceOnUse" color-interpolation-filters="sRGB">
<feFlood flood-opacity="0" result="BackgroundImageFix"/>
<feBlend mode="normal" in="SourceGraphic" in2="BackgroundImageFix" result="shape"/>
<feGaussianBlur stdDeviation="240" result="effect1_foregroundBlur_340_5934"/>
</filter>
<filter id="filter3_f_340_5934" x="952" y="-480" width="1406" height="1406" filterUnits="userSpaceOnUse" color-interpolation-filters="sRGB">
<feFlood flood-opacity="0" result="BackgroundImageFix"/>
<feBlend mode="normal" in="SourceGraphic" in2="BackgroundImageFix" result="shape"/>
<feGaussianBlur stdDeviation="240" result="effect1_foregroundBlur_340_5934"/>
</filter>
<filter id="filter4_f_340_5934" x="-269" y="-409" width="1388" height="1388" filterUnits="userSpaceOnUse" color-interpolation-filters="sRGB">
<feFlood flood-opacity="0" result="BackgroundImageFix"/>
<feBlend mode="normal" in="SourceGraphic" in2="BackgroundImageFix" result="shape"/>
<feGaussianBlur stdDeviation="240" result="effect1_foregroundBlur_340_5934"/>
</filter>
<radialGradient id="paint0_radial_340_5934" cx="0" cy="0" r="1" gradientUnits="userSpaceOnUse" gradientTransform="translate(1263.88 -559) rotate(64.1614) scale(2032.32 6126.81)">
<stop offset="0.175497" stop-color="#4E5FE3"/>
<stop offset="0.275566" stop-color="#4E5FE3" stop-opacity="0.5"/>
<stop offset="0.49892" stop-color="#AED3FF"/>
<stop offset="0.565292" stop-color="#4E5FE3"/>
<stop offset="0.656871" stop-color="#4E5FE3"/>
</radialGradient>
<radialGradient id="paint1_radial_340_5934" cx="0" cy="0" r="1" gradientUnits="userSpaceOnUse" gradientTransform="translate(-111.119 -516) rotate(64.1614) scale(2032.32 6126.81)">
<stop offset="0.175497" stop-color="#4E5FE3"/>
<stop offset="0.275566" stop-color="#4E5FE3" stop-opacity="0.5"/>
<stop offset="0.49892" stop-color="#AED3FF"/>
<stop offset="0.565292" stop-color="#4E5FE3"/>
<stop offset="0.656871" stop-color="#CACFFA"/>
</radialGradient>
<clipPath id="clip0_340_5934">
<rect width="1920" height="1844" rx="30" fill="white"/>
</clipPath>
<clipPath id="clip1_340_5934">
<rect width="1701" height="962" fill="white" transform="matrix(-1 0 0 1 1640 499)"/>
</clipPath>
<clipPath id="clip2_340_5934">
<rect width="12" height="12" fill="white" transform="translate(1737 98)"/>
</clipPath>
</defs>
</svg>
