<svg width="50" height="50" viewBox="0 0 50 50" fill="none" xmlns="http://www.w3.org/2000/svg">
<path d="M48.4375 26.5625H43.75V24.2188C43.75 16.3635 38.8937 9.62207 32.0263 6.83604C31.9223 3.04912 28.8116 0 25 0C21.1884 0 18.0777 3.04912 17.9737 6.83604C11.1062 9.62207 6.25 16.3635 6.25 24.2188V26.5625H1.5625C0.699609 26.5625 0 27.2621 0 28.125V38.2812C0 42.0694 2.71055 45.2355 6.29375 45.9443C6.60342 48.2312 8.56719 50 10.9375 50H39.0625C41.4327 50 43.3965 48.2312 43.7062 45.9443C47.2895 45.2355 50 42.0694 50 38.2812V28.125C50 27.2621 49.3005 26.5625 48.4375 26.5625ZM25 3.125C26.7385 3.125 28.2148 4.26689 28.7198 5.83994C26.3515 5.36133 23.8097 5.32881 21.2802 5.83994C21.7852 4.26699 23.2614 3.125 25 3.125ZM3.125 38.2812V29.6875H6.25V42.701C4.43115 42.0562 3.125 40.3184 3.125 38.2812ZM40.625 45.3125C40.625 46.174 39.924 46.875 39.0625 46.875H10.9375C10.076 46.875 9.375 46.174 9.375 45.3125C9.375 44.2018 9.375 25.0065 9.375 24.2188C9.375 15.6031 16.3844 8.59375 25 8.59375C33.6157 8.59375 40.625 15.6031 40.625 24.2188V45.3125ZM46.875 38.2812C46.875 40.3184 45.5688 42.0562 43.75 42.701V29.6875H46.875V38.2812Z" fill="#4E5FE3"/>
<path d="M25 10.9375C17.6767 10.9375 11.7188 16.8954 11.7188 24.2188C11.7188 25.0816 12.4184 25.7812 13.2812 25.7812C14.1441 25.7812 14.8438 25.0816 14.8438 24.2188C14.8438 18.6186 19.3998 14.0625 25 14.0625C30.6002 14.0625 35.1562 18.6186 35.1562 24.2188C35.1562 25.0816 35.8558 25.7812 36.7188 25.7812C37.5817 25.7812 38.2812 25.0816 38.2812 24.2188C38.2812 16.8954 32.3232 10.9375 25 10.9375Z" fill="#4E5FE3"/>
<path d="M32.8125 29.6875H17.1875C14.6028 29.6875 12.5 31.7903 12.5 34.375V39.8438C12.5 42.4284 14.6028 44.5312 17.1875 44.5312H32.8125C35.3972 44.5312 37.5 42.4284 37.5 39.8438V34.375C37.5 31.7903 35.3972 29.6875 32.8125 29.6875ZM34.375 39.8438C34.375 40.7053 33.674 41.4062 32.8125 41.4062H17.1875C16.326 41.4062 15.625 40.7053 15.625 39.8438V34.375C15.625 33.5135 16.326 32.8125 17.1875 32.8125H32.8125C33.674 32.8125 34.375 33.5135 34.375 34.375V39.8438Z" fill="#4E5FE3"/>
</svg>
