<svg width="1739" height="3542" viewBox="0 0 1739 3542" fill="none" xmlns="http://www.w3.org/2000/svg">
<g opacity="0.3">
<g opacity="0.4">
<g style="mix-blend-mode:overlay">
<path d="M1616.65 3666.81L1616.49 3666.73L1363.93 3538.11L1364.15 3537.72L1447.06 3386.54L1447.28 3386.48L1780.16 3284.24L1780.16 3284.93L1774.24 3648.44L1773.77 3648.5L1616.66 3666.82L1616.65 3666.81ZM1365.35 3537.74L1616.87 3665.82L1773.13 3647.59L1779 3285.59L1447.83 3387.31L1365.34 3537.73L1365.35 3537.74Z" fill="black"/>
</g>
<g style="mix-blend-mode:overlay">
<path d="M827.208 3650.34L862.134 3441.41L862.366 3441.19L994.25 3317.46L1016.91 3493.89L1016.51 3494.21L827.208 3650.34ZM864.216 3442.27L830.303 3645.15L1014.6 3493.15L992.598 3321.83L864.216 3442.27Z" fill="black"/>
</g>
<g style="mix-blend-mode:overlay">
<path d="M602.851 3781.9L602.829 3781.88L598.511 3781.9L601.287 3780.27L488.831 3663.03L489.844 3662.1L727.234 3445.21L830.823 3648.26L609.327 3778.99L885.432 3777.93L1119.56 3760.33L1013.63 3492.55L1015.3 3492.14L1440.87 3387.06L1204.66 3338.78L1225.53 3193.87L1227.25 3194.15L1417.23 3224.64L1417.6 3224.96L1632.3 3411.85L1796.08 3477.69L1794.69 3480.29L1630.37 3414.24L1630.16 3414.06L1415.61 3227.31L1228.36 3197.25L1208.29 3336.59L1454 3386.81L1017.88 3494.49L1124.06 3762.88L1121.95 3763.04L885.575 3780.81L885.509 3780.81L602.873 3781.89L602.851 3781.91L602.851 3781.9ZM493.237 3663.15L604.018 3778.64L826.671 3647.24L726.199 3450.31L493.226 3663.15L493.237 3663.15Z" fill="black"/>
</g>
<g style="mix-blend-mode:overlay">
<path d="M1206.43 3338.26L1206.13 3338.04L900.043 3112.21L900.748 3111.49L1206.54 3337.08L1416.23 3225.51L1416.34 3225.5L1641.79 3190.24L1641.98 3191.18L1416.63 3226.43L1206.43 3338.26Z" fill="black"/>
</g>
<g style="mix-blend-mode:overlay">
<path d="M331.321 3851.64L330.726 3850.83L441.243 3789.66L441.386 3789.66L603.879 3779.97L885.128 3778.89L1015.25 3493.34L1016.27 3493.7L885.888 3779.85L885.513 3779.85L603.923 3780.92L441.595 3790.6L331.321 3851.64Z" fill="black"/>
</g>
<g style="mix-blend-mode:overlay">
<path d="M1913.7 2980.21L1664.05 3000.39L1664.36 3003.24L1914.01 2983.07L1913.7 2980.21Z" fill="black"/>
</g>
<g style="mix-blend-mode:overlay">
<path d="M725.739 3449.24L725.255 3448.41L618.339 3267.18L877.251 3302.39L898.949 3109.98L1087.29 3158.26L1189.01 2986.75L1229.01 3197.58L1088.98 3161.68L994.366 3321.21L880.203 3305.69L864.695 3443.2L725.75 3449.24L725.739 3449.24ZM624.232 3270.88L727.711 3446.27L861.677 3440.46L876.921 3305.24L624.232 3270.88ZM880.511 3302.83L992.504 3318.06L1085.74 3160.85L901.846 3113.71L880.522 3302.83L880.511 3302.83ZM1090.51 3159.08L1224.89 3193.53L1187.37 2995.77L1090.51 3159.07L1090.51 3159.08Z" fill="black"/>
</g>
<g style="mix-blend-mode:overlay">
<path d="M792.965 3854.4L792.139 3854.26L441.093 3791.55L441.754 3788.74L791.985 3851.31L883.568 3778.97L826.547 3646.73L828.376 3646.36L1361.92 3537.02L1203.55 3336.51L1206.31 3336.26L1775.37 3283.87L1638.51 3190.24L1728.04 3162.73L1662.9 3002.84L1432.59 2916.03L1916.11 2980.42L1853.43 3127.24L1852.7 3127.46L1732.26 3164.46L1780.78 3283.55L1936.63 3292.54L1797.47 3478.85L1903.06 3581.55L1962.69 3494.42L1965.53 3495.88L1905.37 3583.8L1905.92 3584.33L1904.52 3585.02L1904.11 3585.62L1903.56 3585.5L1773.55 3649.75L1772.68 3649.16L1560.5 3504.93L1898.46 3581.38L1793.34 3479.13L1794.03 3478.21L1930.81 3295.08L1779.63 3286.37L1209.44 3338.86L1367.39 3538.86L830.986 3648.78L887.478 3779.79L792.998 3854.41L792.965 3854.4ZM1575.05 3511.18L1773.84 3646.3L1898.97 3584.46L1575.05 3511.18ZM1645.27 3191.19L1776.12 3280.72L1729.14 3165.42L1645.26 3191.19L1645.27 3191.19ZM1457.33 2922.22L1665.54 3000.69L1731.16 3161.76L1850.87 3124.98L1911.62 2982.73L1457.34 2922.23L1457.33 2922.22Z" fill="black"/>
</g>
<g style="mix-blend-mode:overlay">
<path d="M620.707 3268.92L490.596 3663.01L491.655 3663.27L621.766 3269.19L620.707 3268.92Z" fill="black"/>
</g>
</g>
<g style="mix-blend-mode:overlay">
<path d="M349.348 750.785L349.513 750.699L602.07 622.083L601.849 621.691L518.945 470.515L518.725 470.448L185.842 368.208L185.842 368.896L191.756 732.411L192.23 732.468L349.337 750.794L349.348 750.785ZM600.649 621.711L349.128 749.791L192.869 731.56L186.998 369.565L518.174 471.28L600.66 621.701L600.649 621.711Z" fill="black"/>
</g>
<g style="mix-blend-mode:overlay">
<path d="M1138.79 734.314L1103.87 525.378L1103.64 525.159L971.751 401.428L949.094 577.861L949.491 578.186L1138.79 734.314ZM1101.78 526.239L1135.7 729.123L951.396 577.125L973.403 405.797L1101.78 526.239Z" fill="black"/>
</g>
<g style="mix-blend-mode:overlay">
<path d="M1521.31 879.142L1748.7 835.417L1478.91 743.787L1478.56 742.917L1475.21 742.765L1137.49 727.421L1136.97 736.015L1471.33 751.206L1521.3 879.142L1521.31 879.142ZM1714.77 833.132L1527.84 869.076L1483.07 754.437L1714.77 833.122L1714.77 833.132Z" fill="black"/>
</g>
<g style="mix-blend-mode:overlay">
<path d="M112.365 209.451L115.409 210.566L33.8393 378.249L30.7952 377.133L112.365 209.451Z" fill="black"/>
</g>
<g style="mix-blend-mode:overlay">
<path d="M1363.15 865.874L1363.17 865.855L1367.49 865.874L1364.71 864.239L1477.17 747L1476.16 746.072L1238.77 529.183L1135.18 732.23L1356.67 862.958L1080.57 861.897L846.439 844.298L952.374 576.523L950.7 576.111L525.131 471.032L761.343 422.746L740.471 277.841L738.753 278.118L548.768 308.614L548.404 308.929L333.704 495.82L169.922 561.657L171.31 564.257L335.631 498.21L335.84 498.028L550.387 311.281L737.64 281.225L757.708 420.557L512.002 470.783L948.122 578.463L841.945 846.85L844.049 847.012L1080.43 864.784L1080.49 864.784L1363.13 865.864L1363.15 865.883L1363.15 865.874ZM1472.76 747.124L1361.98 862.614L1139.33 731.207L1239.8 534.279L1472.77 747.124L1472.76 747.124Z" fill="black"/>
</g>
<g style="mix-blend-mode:overlay">
<path d="M759.574 422.23L759.872 422.01L1065.96 196.183L1065.25 195.456L759.464 421.054L549.775 309.483L549.665 309.474L324.214 274.208L324.016 275.155L549.367 310.401L759.574 422.23Z" fill="black"/>
</g>
<g style="mix-blend-mode:overlay">
<path d="M1633.7 935.793L1635.03 935.678L1871 915.364L1731.64 833.629L1731.32 833.964L1633.7 935.793ZM1867.86 914.676L1636.26 934.617L1731.85 834.91L1867.86 914.676Z" fill="black"/>
</g>
<g style="mix-blend-mode:overlay">
<path d="M1634.68 935.612L1635.27 934.799L1524.76 873.636L1524.61 873.627L1362.12 863.943L1080.87 862.863L950.75 577.316L949.726 577.67L1080.11 863.819L1080.49 863.819L1362.08 864.889L1524.41 874.573L1634.68 935.612Z" fill="black"/>
</g>
<g style="mix-blend-mode:overlay">
<path d="M52.3016 64.181L301.95 84.3579L301.643 87.2134L51.9952 67.0365L52.3016 64.181Z" fill="black"/>
</g>
<g style="mix-blend-mode:overlay">
<path d="M1240.26 533.208L1240.75 532.386L1347.66 351.154L1088.75 386.362L1067.05 193.955L878.708 242.232L776.991 70.7221L736.988 281.55L877.023 245.654L971.635 405.185L1085.8 389.66L1093.55 458.418L1101.31 527.176L1240.25 533.208L1240.26 533.208ZM1341.77 354.854L1238.29 530.244L1104.32 524.432L1089.08 389.211L1341.77 354.854ZM1085.49 386.802L973.496 402.03L880.261 244.822L1064.15 197.684L1085.48 386.802L1085.49 386.802ZM875.492 243.054L741.107 277.497L778.632 79.7369L875.492 243.044L875.492 243.054Z" fill="black"/>
</g>
<g style="mix-blend-mode:overlay">
<path d="M-0.00013983 580.729L170.787 564.382L170.423 561.533L3.82176 577.478L33.9347 377.959L30.6635 377.586L-0.00013983 580.729Z" fill="black"/>
</g>
<g style="mix-blend-mode:overlay">
<path d="M34.1546 939.903L241.454 874.64L101.749 850.721L194.147 733.071L190.513 730.92L99.3258 847.031L61.9766 652.55L34.1656 939.913L34.1546 939.903ZM225.064 875.73L39.122 934.273L63.4194 683.313L95.7351 851.591L94.3584 853.35L225.075 875.73L225.064 875.73Z" fill="black"/>
</g>
<g style="mix-blend-mode:overlay">
<path d="M1173.04 938.374L1173.86 938.231L1524.91 875.52L1524.25 872.709L1174.02 935.277L1082.43 862.939L1139.45 730.701L1137.63 730.328L604.084 620.994L762.447 420.481L759.693 420.232L190.632 367.845L327.495 274.209L237.96 246.705L303.098 86.811L533.406 -8.66799e-05L49.8916 64.3936L112.574 211.211L113.301 211.43L233.741 248.436L185.224 367.52L29.372 376.506L168.526 562.824L62.9434 665.523L3.31245 578.387L0.470652 579.849L60.6304 667.769L60.0797 668.305L61.4786 668.993L61.886 669.595L62.4368 669.471L192.449 733.721L193.319 733.129L405.497 588.902L67.5363 665.351L172.656 563.101L171.973 562.183L35.1876 379.049L186.369 370.34L756.565 422.832L598.61 622.83L1135.01 732.756L1078.52 863.761L1173 938.384L1173.04 938.374ZM390.948 595.154L192.163 730.27L67.0297 668.429L390.948 595.154ZM320.732 275.165L189.883 364.691L236.858 249.392L320.743 275.165L320.732 275.165ZM508.668 6.19456L300.466 84.6601L234.843 245.73L115.129 208.954L54.3855 66.6975L508.657 6.20412L508.668 6.19456Z" fill="black"/>
</g>
<g style="mix-blend-mode:overlay">
<path d="M404.649 990.35L1173.66 938.25L1173.41 935.391L414.176 986.832L622.081 826.077L846.959 847.28L778.098 722.173L1076.26 862.977L814.5 959.654L815.48 962.397L1084.71 863.713L1081.28 862.088L770.718 715.434L841.419 843.877L625.396 823.505L626.762 822.454L621.696 823.113L492.014 782.016L348.631 748.672L347.959 749.399L229.313 877.154L616.288 826.717L404.649 990.35ZM614.878 824.002L237.211 873.225L349.864 751.923L491.1 784.77L614.878 824.002Z" fill="black"/>
</g>
<g style="mix-blend-mode:overlay">
<path d="M1345.29 352.896L1475.4 746.981L1474.35 747.244L1344.24 353.159L1345.29 352.896Z" fill="black"/>
</g>
<g style="mix-blend-mode:overlay">
<path d="M233.596 874.776L409.712 988.215L409.056 988.983L232.94 875.544L233.596 874.776Z" fill="black"/>
</g>
</g>
</svg>
