<svg width="615" height="519" viewBox="0 0 615 519" fill="none" xmlns="http://www.w3.org/2000/svg">
<g style="mix-blend-mode:overlay">
<path d="M67.8993 304.037L67.9591 304.019L159.117 278.176L159.087 278.014L148.061 215.972L147.999 215.93L54.4019 150.89L54.3346 151.141L20.6551 284.197L20.7968 284.257L67.8949 304.04L67.8993 304.037ZM158.712 277.921L67.9279 303.656L21.0844 283.979L54.6291 151.481L147.746 216.187L158.716 277.919L158.712 277.921Z" fill="#4E5FE3" fill-opacity="0.1"/>
</g>
<g style="mix-blend-mode:overlay">
<path d="M106.718 329.41L204.569 329.437L214.238 286.003L271.625 292.558L272.007 289.335L214.944 282.818L228.918 220.058L300.188 231.776L236.227 163.4L236.044 163.288L157.249 115.325L271.512 94.2707L193.892 43.4318L151.976 112.615L149.207 111.899L118.809 55.4951L42.4091 87.5986L147.058 114.698L148.685 117.715L86.3973 209.979L97.278 251.383L128.838 265.952L106.721 329.411L106.718 329.41ZM202.022 326.192L111.231 326.166L131.748 267.293L158.474 279.629L158.723 279.658L211.049 285.634L202.02 326.187L202.022 326.192ZM211.762 282.451L159.362 276.466L132.823 264.214L149.388 216.679L175.07 159.892L152.427 117.881L153.238 116.679L234.2 165.958L291.323 227.024L226.473 216.362L211.759 282.451L211.762 282.451ZM171.498 160.045L146.425 215.482L146.399 215.55L129.907 262.869L99.9777 249.054L89.8602 210.559L150.393 120.893L171.495 160.044L171.498 160.045ZM144.955 110.794L52.5057 86.8516L117.369 59.5965L144.96 110.791L144.955 110.794ZM262.973 92.5506L155.917 112.274L194.887 47.9579L262.973 92.5506Z" fill="#4E5FE3" fill-opacity="0.1"/>
</g>
<g style="mix-blend-mode:overlay">
<path d="M315.169 363.855L324.716 284.75L324.666 284.651L295.716 228.534L271.426 290.984L271.518 291.136L315.169 363.855ZM323.985 284.891L314.713 361.704L272.214 290.908L295.803 230.264L323.985 284.891Z" fill="#4E5FE3" fill-opacity="0.1"/>
</g>
<g style="mix-blend-mode:overlay">
<path d="M420.05 448.564L495.082 451.579L420.08 395.669L420.059 395.323L419.029 394.987L315.436 361.233L314.435 364.323L416.997 397.742L420.047 448.563L420.05 448.564ZM484.745 447.916L423.066 445.438L420.335 399.899L484.746 447.912L484.745 447.916Z" fill="#4E5FE3" fill-opacity="0.1"/>
</g>
<g style="mix-blend-mode:overlay">
<path d="M47.0499 86.8692L47.8882 87.5298L6.12041 141.877L5.28215 141.216L47.0499 86.8692Z" fill="#4E5FE3" fill-opacity="0.1"/>
</g>
<g style="mix-blend-mode:overlay">
<path d="M372.13 430.538L372.138 430.533L373.48 430.9L372.776 430.073L419.226 396.695L419.001 396.273L366.323 297.386L314.248 362.794L370.399 428.935L284.584 405.526L213.447 379.586L272.577 290.77L272.096 290.48L149.935 216.677L228.158 218.764L235.822 164.181L235.26 164.139L173.161 159.419L173.017 159.503L87.9444 209.755L30.5454 220.107L30.7232 221.171L88.3107 210.787L88.3935 210.738L173.404 160.526L234.611 165.179L227.241 217.663L145.874 215.491L271.065 291.123L211.799 380.142L212.438 380.377L284.258 406.567L284.278 406.572L372.124 430.533L372.129 430.542L372.13 430.538ZM417.843 396.373L372.085 429.252L315.64 362.767L366.147 299.331L417.846 396.374L417.843 396.373Z" fill="#4E5FE3" fill-opacity="0.1"/>
</g>
<g style="mix-blend-mode:overlay">
<path d="M227.658 218.428L227.772 218.373L345.086 161.542L344.938 161.218L227.738 217.99L173.389 159.82L173.356 159.807L106.646 128.148L106.491 128.477L173.172 160.12L227.658 218.428Z" fill="#4E5FE3" fill-opacity="0.1"/>
</g>
<g style="mix-blend-mode:overlay">
<path d="M449.487 478.594L449.913 478.663L525.327 490.93L489.947 449.504L489.815 449.599L449.487 478.594ZM524.418 490.418L450.401 478.379L489.887 449.988L524.418 490.418Z" fill="#4E5FE3" fill-opacity="0.1"/>
</g>
<g style="mix-blend-mode:overlay">
<path d="M449.81 478.61L450.075 478.363L421.66 446.844L421.617 446.829L371.998 429.748L284.584 405.904L271.994 290.924L271.641 290.967L284.254 406.189L284.371 406.22L371.892 430.09L421.459 447.156L449.81 478.61Z" fill="#4E5FE3" fill-opacity="0.1"/>
</g>
<g style="mix-blend-mode:overlay">
<path d="M42.5538 28.8854L118.268 57.0592L117.894 58.075L42.1794 29.9012L42.5538 28.8854Z" fill="#4E5FE3" fill-opacity="0.1"/>
</g>
<g style="mix-blend-mode:overlay">
<path d="M366.395 298.978L366.626 298.719L417.605 241.544L333.596 232.795L345.644 160.821L282.318 162.722L267.425 91.696L234.376 165.243L281.459 163.829L295.313 229.894L332.355 233.752L323.744 285.192L366.391 298.977L366.395 298.978ZM415.409 242.402L366.071 297.733L324.951 284.443L333.42 233.861L415.409 242.402ZM332.538 232.684L296.2 228.899L282.548 163.796L344.379 161.939L332.535 232.683L332.538 232.684ZM281.237 162.753L236.053 164.109L267.054 95.1203L281.238 162.75L281.237 162.753Z" fill="#4E5FE3" fill-opacity="0.1"/>
</g>
<g style="mix-blend-mode:overlay">
<path d="M-24.195 212.894L30.548 221.173L30.7132 220.103L-22.6881 212.027L6.1781 141.779L5.19659 141.37L-24.195 212.894Z" fill="#4E5FE3" fill-opacity="0.1"/>
</g>
<g style="mix-blend-mode:overlay">
<path d="M-48.6623 346.721L22.2223 340.207L-18.914 319.836L21.3346 284.636L20.4137 283.549L-19.3075 318.288L-11.9265 244.252L-48.6599 346.726L-48.6623 346.721ZM17.0158 339.237L-46.5664 345.082L-14.4835 255.591L-20.8704 319.651L-21.4707 320.178L17.0193 339.238L17.0158 339.237Z" fill="#4E5FE3" fill-opacity="0.1"/>
</g>
<g style="mix-blend-mode:overlay">
<path d="M305.885 441.125L306.157 441.141L421.523 447.543L421.592 446.463L306.493 440.077L285.062 406.061L315.728 362.592L315.195 362.304L159.851 277.946L228.723 218.03L227.89 217.709L55.9277 151.157L107.666 128.422L82.4923 110.927L118.386 58.0495L198.536 45.5954L41.7832 28.762L46.9428 87.5282L47.1475 87.669L81.0105 111.206L54.2766 150.587L4.90045 140.869L29.997 220.416L-12.8934 249.064L-22.9351 212.316L-23.9624 212.612L-13.8327 249.69L-14.0564 249.84L-13.6883 250.207L-13.6204 250.461L-13.4369 250.461L20.7424 284.732L21.0711 284.588L101.19 249.685L-11.4474 249.384L31.2552 220.862L31.1323 220.47L6.46168 142.281L54.3575 151.711L226.663 218.397L157.968 278.159L314.146 362.972L283.765 406.035L305.874 441.126L305.885 441.125ZM96.0513 250.752L20.9905 283.45L-11.9058 250.464L96.0513 250.752ZM105.469 128.207L56.0029 149.944L81.8871 111.815L105.472 128.208L105.469 128.207ZM190.233 45.7917L117.777 57.0456L81.6176 110.311L47.9584 86.9185L42.9565 29.9769L190.228 45.7943L190.233 45.7917Z" fill="#4E5FE3" fill-opacity="0.1"/>
</g>
<g style="mix-blend-mode:overlay">
<path d="M61.699 396.01L306.093 441.132L306.293 440.068L65.0075 395.521L145.411 354.234L213.317 380.717L204.114 329.353L283.139 405.561L192.236 418.99L192.273 420.072L285.696 406.534L284.785 405.655L202.476 326.28L211.926 379.014L146.694 353.573L147.222 353.303L145.581 353.121L109.242 327.322L67.8821 303.207L67.602 303.416L18.1985 340.111L143.546 353.985L61.699 396.01ZM143.373 352.877L21.0399 339.337L67.9484 304.495L108.689 328.25L143.373 352.877Z" fill="#4E5FE3" fill-opacity="0.1"/>
</g>
<g style="mix-blend-mode:overlay">
<path d="M416.697 241.982L418.678 396.541L418.323 396.549L416.342 241.989L416.697 241.982Z" fill="#4E5FE3" fill-opacity="0.1"/>
</g>
<g style="mix-blend-mode:overlay">
<path d="M19.7639 339.601L63.4834 395.654L63.2041 395.879L19.4846 339.827L19.7639 339.601Z" fill="#4E5FE3" fill-opacity="0.1"/>
</g>
</svg>
